<svg width="200" height="150" viewBox="0 0 800 600" fill="none" xmlns="http://www.w3.org/2000/svg" data-reactroot="">
<path d="M266.724 284.315C251.845 336.727 381.706 401.819 388.241 404.255L428.736 388.918C437.336 380.75 458.656 361.589 475.145 350.293C495.755 336.173 478.977 314.324 456.118 298.427C433.259 282.529 438.763 261.642 449.073 244.407C459.383 227.173 445.953 207.714 428.736 203.01C411.52 198.305 425.584 176.832 433.654 155.534C441.724 134.237 401.006 128.611 376.594 130.841C352.182 133.071 346.615 97.9969 323.69 85.6305C300.766 73.2641 292.65 103.703 298.144 116.355C303.637 129.008 288.877 143.636 266.724 155.534C244.57 167.433 262.596 211.072 284.77 231.902C309.064 254.724 273.893 259.061 266.724 284.315Z" fill="#D1D95E"></path>
<path d="M238.141 278.466C246.278 313.017 164.587 358.957 160.493 360.71L135.747 351.338C130.592 346.082 117.789 333.775 107.817 326.6C95.3508 317.631 106.18 302.758 120.651 291.719C135.121 280.68 132.142 266.902 126.113 255.651C120.085 244.4 128.794 231.186 139.544 227.705C150.294 224.225 142.029 210.232 137.47 196.234C132.911 182.235 158.223 177.663 173.285 178.647C188.346 179.631 192.507 156.193 206.946 147.5C221.385 138.808 225.786 158.885 222.128 167.411C218.47 175.938 227.305 185.364 240.771 192.824C254.237 200.285 242.191 229.674 228.044 243.979C212.544 259.652 234.22 261.818 238.141 278.466Z" fill="#C6D303"></path>
<path d="M574.688 235.385C582.825 269.936 501.134 315.876 497.04 317.629L472.294 308.257C467.139 303.001 454.336 290.694 444.364 283.519C431.898 274.549 442.727 259.677 457.197 248.638C471.668 237.599 468.689 223.821 462.66 212.57C456.632 201.319 465.341 188.105 476.091 184.624C486.841 181.144 478.576 167.151 474.017 153.153C469.458 139.154 494.77 134.581 509.832 135.566C524.893 136.55 529.054 113.112 543.493 104.419C557.932 95.7273 562.333 115.804 558.675 124.33C555.017 132.856 563.852 142.283 577.318 149.743C590.784 157.203 578.738 186.592 564.591 200.898C549.091 216.571 570.767 218.737 574.688 235.385Z" fill="#B3C13C"></path>
<rect x="423.871" y="115.46" width="15.2886" height="242.333" rx="2.68043" transform="rotate(12.0096 423.871 115.46)" fill="#EFC474"></rect>
<path d="M430.961 288.759C439.098 323.31 357.407 369.25 353.313 371.003L328.567 361.631C323.412 356.375 310.61 344.068 300.637 336.893C288.171 327.923 299 313.051 313.471 302.012C327.941 290.973 324.962 277.195 318.934 265.944C312.905 254.693 321.614 241.479 332.364 237.998C343.114 234.518 334.85 220.525 330.291 206.527C325.732 192.528 351.044 187.956 366.105 188.94C381.166 189.924 385.328 166.486 399.767 157.793C414.206 149.101 418.606 169.178 414.948 177.704C411.29 186.23 420.125 195.657 433.591 203.117C447.058 210.577 435.012 239.967 420.864 254.272C405.364 269.945 427.041 272.111 430.961 288.759Z" fill="#B3C13C"></path>
<ellipse cx="402.157" cy="526.612" rx="366.544" ry="23.6162" fill="black" fill-opacity="0.15"></ellipse>
<path d="M748.828 516.441C748.828 531.765 594.941 544.187 405.113 544.187C215.285 544.187 61.3984 531.765 61.3984 516.441C61.3984 510.247 86.5401 504.527 129.035 499.91C191.672 493.104 292.013 488.694 405.113 488.694C508.373 488.694 600.998 492.37 664.004 498.189C716.824 503.068 748.828 509.452 748.828 516.441Z" fill="#C4B6FF"></path>
<path d="M61.3984 516.441C61.3984 510.247 86.5401 504.527 129.035 499.91L61.3984 500.127V516.441Z" fill="#C4B6FF"></path>
<path d="M664.004 498.189C716.824 503.068 748.828 509.452 748.828 516.441V498.045H708.762L664.004 498.189Z" fill="#C4B6FF"></path>
<ellipse cx="405.117" cy="499.563" rx="343.715" ry="27.7463" fill="#FFE458"></ellipse>
<circle cx="383.262" cy="284.714" r="32.5827" fill="#6E2AC4"></circle>
<circle cx="198.056" cy="262.898" r="30.392" fill="#6E2AC4"></circle>
<circle cx="736.775" cy="305.472" r="30.392" fill="#6E2AC4"></circle>
<path d="M170.576 200.171C180.478 209.385 188.178 233.24 177.912 244.273C167.645 255.305 143.298 249.338 133.397 240.123C123.495 230.909 115.686 206.953 125.953 195.921C136.22 184.888 160.674 190.956 170.576 200.171Z" fill="#3F3F3F"></path>
<path d="M456.529 191.955C466.431 201.17 474.131 225.025 463.865 236.057C453.598 247.09 429.252 241.123 419.35 231.908C409.448 222.694 401.639 198.738 411.906 187.706C422.173 176.673 446.627 182.741 456.529 191.955Z" fill="#3F3F3F"></path>
<path d="M701.421 502.304C701.421 510.07 563.887 512.603 394.23 512.603C224.573 512.603 111.906 509.773 111.906 502.006C123.621 478.577 224.573 488.241 394.23 488.241C563.887 488.241 701.421 494.537 701.421 502.304Z" fill="#B5CDFB"></path>
<path d="M294.443 238.007C308.465 244.77 333.293 264.344 320.425 288.537C304.34 318.778 267.792 320.429 257.9 308.92C249.987 299.712 242.361 282.083 239.538 274.419C224.096 279.138 189.507 281.398 174.68 252.683C159.853 223.968 163.724 201.725 167.513 194.194C158.654 187.269 145.058 167.827 161.54 145.453C182.143 117.485 229.948 138.484 225.886 163.011" stroke="#FFD704" stroke-width="3.57391"></path>
<circle cx="445.274" cy="245.805" r="54.9108" fill="#FF2030"></circle>
<circle cx="445.271" cy="249.597" r="42.2048" fill="#FF616C"></circle>
<path d="M466.256 374.291C538.543 316.531 625.149 161.006 659.416 90.4642C592.443 279.312 514.775 347.13 477.037 379.382L466.256 374.291Z" fill="#138600"></path>
<path d="M664.557 200.141C657.446 211.646 635.546 223.843 622.726 215.92C609.906 207.996 611.021 182.954 618.132 171.448C625.243 159.942 647.221 147.621 660.041 155.544C672.86 163.467 671.668 188.635 664.557 200.141Z" fill="#3F3F3F"></path>
<circle cx="115.809" cy="269.235" r="46.1804" fill="#FF2030"></circle>
<circle cx="340.688" cy="313.886" r="46.1804" fill="#FF2030"></circle>
<path d="M280.514 448.884C208.227 391.124 121.62 235.599 87.3533 165.057C154.327 353.905 231.995 421.723 269.732 453.975L280.514 448.884Z" fill="#138600"></path>
<circle cx="647.854" cy="236.269" r="63.1387" fill="#FF2030"></circle>
<path d="M85.8243 265.688C65.4151 269.468 94.3282 318.915 111.336 343.166H168.972C218.42 346.631 322.418 350.159 342.827 336.553C368.338 319.546 322.04 306.318 304.088 291.2C286.135 276.082 327.709 231.672 282.356 208.051C237.002 184.429 215.271 284.585 197.318 284.585C179.366 284.585 200.153 226.002 162.358 223.168C124.564 220.333 145.351 274.192 134.957 284.585C124.564 294.978 111.336 260.963 85.8243 265.688Z" fill="#B3C13C"></path>
<path d="M750.014 237.343C779.411 242.787 737.766 314.008 713.268 348.938H630.251C559.029 353.929 563.058 348.938 563.058 348.938L538.561 304.271C538.561 304.271 585.34 180.181 639.778 176.098C694.215 172.015 664.275 249.591 679.245 264.561C694.215 279.531 713.268 230.537 750.014 237.343Z" fill="#A7B200"></path>
<path d="M532.214 218.633C517.284 223.045 489.623 238.358 498.42 264.309C509.417 296.749 545.22 304.274 556.838 294.511C566.133 286.701 576.503 270.532 580.526 263.424C595.004 270.572 628.776 278.382 648.041 252.435C667.305 226.488 667.073 203.912 664.549 195.868C674.408 190.463 690.962 173.469 678.306 148.729C662.484 117.804 611.918 130.816 611.97 155.678" stroke="#B61A26" stroke-width="3.57391"></path>
<path d="M486.667 133.53C458.773 122.774 424.15 285.6 426.728 328.186L506.685 352.807C564.748 394.355 583.203 358.139 583.203 358.139L622.691 366.045C622.691 366.045 656.89 171.066 612.652 139.081C568.413 107.096 553.297 188.863 532.704 193.777C512.111 198.691 521.536 146.975 486.667 133.53Z" fill="#D1D95E"></path>
<rect x="718.148" y="182.128" width="28.4859" height="242.333" transform="rotate(24.179 718.148 182.128)" fill="#FFC940"></rect>
<path d="M482.021 283.056C491.923 292.271 499.624 316.126 489.357 327.158C479.09 338.191 454.744 332.224 444.842 323.009C434.94 313.795 427.131 289.839 437.398 278.807C447.665 267.774 472.119 273.842 482.021 283.056Z" fill="#3F3F3F"></path>
<rect x="281.66" y="163.514" width="15.2886" height="242.333" transform="rotate(-38.7524 281.66 163.514)" fill="#EDB21B"></rect>
<rect width="15.2886" height="242.333" transform="matrix(-0.779858 -0.625957 -0.625957 0.779858 472.168 231.409)" fill="#EDB21B"></rect>
<rect x="21.9492" y="213.259" width="15.2886" height="242.333" rx="2.68043" transform="rotate(-26.7125 21.9492 213.259)" fill="#EFC474"></rect>
<path d="M519.486 466.648C591.773 408.888 678.38 253.363 712.647 182.821C645.673 371.669 568.005 439.487 530.268 471.739L519.486 466.648Z" fill="#138600"></path>
<path d="M216.256 432.661C288.543 374.901 375.149 219.377 409.416 148.835C342.443 337.682 264.775 405.5 227.037 437.752L216.256 432.661Z" fill="#138600"></path>
<path d="M460.837 208.535C469.255 195.439 491.703 173.176 514.151 188.891C542.211 208.535 539.405 245.013 526.778 253.431C516.677 260.166 498.25 265.591 490.3 267.461C493.106 283.362 491.142 317.97 460.837 329.194C430.531 340.418 408.925 333.871 401.91 329.194C393.96 337.144 373.008 348.275 352.805 329.194C327.55 305.343 354.208 260.446 378.059 267.461" stroke="#FFD704" stroke-width="3.57391"></path>
<circle cx="338.493" cy="171.833" r="4.10674" fill="#FCFCFC"></circle>
<circle cx="252.208" cy="290.885" r="4.10674" fill="#FCFCFC"></circle>
<circle cx="137.894" cy="243.281" r="6.65528" fill="#FCFCFC"></circle>
<circle cx="642.341" cy="170.42" r="5.51295" fill="#FCFCFC"></circle>
<circle cx="441.169" cy="294.677" r="4.10674" fill="#FCFCFC"></circle>
<circle cx="293.466" cy="304.819" r="4.10674" fill="#FCFCFC"></circle>
<circle cx="290.404" cy="143.355" r="4.10674" fill="#FCFCFC"></circle>
<circle cx="283.068" cy="231.259" r="4.10674" fill="#FCFCFC"></circle>
<circle cx="588.822" cy="279.173" r="4.10674" fill="#FCFCFC"></circle>
<circle cx="615.576" cy="208.797" r="4.10674" fill="#FCFCFC"></circle>
<circle cx="538.564" cy="145.303" r="4.10674" fill="#FCFCFC"></circle>
<circle cx="573.368" cy="244.991" r="4.10674" fill="#FCFCFC"></circle>
<circle cx="79.7278" cy="295.178" r="4.10674" fill="#FCFCFC"></circle>
<circle cx="451.888" cy="223.045" r="4.10674" fill="#FCFCFC"></circle>
<circle cx="736.774" cy="278.132" r="5.14875" fill="#FCFCFC"></circle>
<circle cx="687.173" cy="279.173" r="4.10674" fill="#FCFCFC"></circle>
<circle cx="565.661" cy="208.546" r="4.10674" fill="#FCFCFC"></circle>
<circle cx="368.675" cy="139.248" r="2.90162" fill="#FCFCFC"></circle>
<circle cx="643.004" cy="288.68" r="4.85122" fill="#FCFCFC"></circle>
<circle cx="726.693" cy="289.252" r="5.42311" fill="#FCFCFC"></circle>
<circle cx="514.579" cy="292.201" r="5.42311" fill="#FCFCFC"></circle>
<circle cx="208.626" cy="203.407" r="5.93847" fill="#FCFCFC"></circle>
<circle cx="185.965" cy="295.923" r="4.85122" fill="#FCFCFC"></circle>
<circle cx="573.368" cy="322.616" r="54.9108" fill="#FF2030"></circle>
<circle cx="573.365" cy="326.409" r="42.2048" fill="#FF616C"></circle>
<path d="M675.268 293.46C665.366 302.675 657.665 326.53 667.932 337.562C678.199 348.595 702.545 342.628 712.447 333.413C722.349 324.199 730.158 300.243 719.891 289.211C709.624 278.178 685.17 284.246 675.268 293.46Z" fill="#3F3F3F"></path>
<circle cx="178.356" cy="330.295" r="54.9108" fill="#B61A26"></circle>
<circle cx="178.353" cy="334.093" r="42.2048" fill="#9E1A25"></circle>
<path fill-rule="evenodd" clip-rule="evenodd" d="M27.4688 309.762H259.231H550.993H782.755L706.131 494.427C703.64 500.431 697.778 504.345 691.277 504.345H550.993H259.231H118.948C112.446 504.345 106.585 500.431 104.093 494.427L27.4688 309.762Z" fill="#C4B6FF"></path>
<path d="M745.067 400.587L729.706 437.606C712.944 478.003 673.509 504.334 629.773 504.334H180.457C136.72 504.334 97.2852 478.003 80.523 437.606L66.1172 402.888C104.627 434.782 162.57 474.227 215.95 476.711C225.771 477.168 235.729 477.645 245.799 478.127C357.108 483.455 482.051 489.437 585.761 476.711C648.076 469.064 708.423 429.403 745.067 400.587Z" fill="black" fill-opacity="0.14"></path>
</svg>
