<svg width="200" height="150" viewBox="0 0 800 600" fill="none" xmlns="http://www.w3.org/2000/svg" data-reactroot="">
<path d="M334.917 242.884L319.403 252.592L290.729 192.821C290.729 192.821 310.254 123.763 315.216 114.682L327.562 144.406C322.943 153.173 318.589 163.558 311.989 192.537L334.917 242.884Z" fill="#EDB18C"></path>
<path d="M338.138 41.8386C338.138 41.8386 361.37 88.7732 356.957 91.1758C352.544 93.5784 322.918 93.902 322.918 93.902C322.918 93.902 322.918 20.0776 341.354 20.0776" fill="#0E0F25"></path>
<path d="M388.24 40.4753C388.24 40.4753 365.008 87.4099 369.421 89.8125C373.824 92.2151 403.46 92.5387 403.46 92.5387C403.46 92.5387 403.46 18.7144 385.023 18.7144" fill="#0E0F25"></path>
<path d="M363.364 10.1039C363.364 10.1039 348.232 9.00557 338.681 16.6155C318.067 33.0318 331.345 68.679 336.945 51.4585L398.354 74.6904C398.344 74.6708 417.173 6.99521 363.364 10.1039Z" fill="#0E0F25"></path>
<path d="M177.879 587.647V341.363C177.879 338.215 180.429 335.665 183.577 335.665C186.724 335.665 189.274 338.215 189.274 341.363V587.647C189.264 590.785 177.879 590.785 177.879 587.647Z" fill="#7D55FF"></path>
<path d="M418.406 269.332L424.623 207.521L398.43 148.534L410.139 121.144L446.806 207.384L427.281 275.569L418.406 269.332Z" fill="#EDB18C"></path>
<path d="M368.677 449.922L367.275 470.702L358.763 570.995C352.114 581.615 350.967 579.536 346.946 570.995L336.08 449.922H368.677Z" fill="#EDB18C"></path>
<path d="M399.812 449.922L392.202 573.26L380.512 570.995L367.273 470.702L364.537 449.922H399.812Z" fill="#EDB18C"></path>
<path d="M336 338.088L390.143 338.088L390.143 278.484L336 278.484L336 338.088Z" fill="#0095FF"></path>
<path d="M346.926 99.4816C339.12 101.463 315.201 114.672 315.201 114.672L318.918 151.79L325.528 170.188L401.343 162.587L407.021 141.954C407.021 141.954 413.366 124.714 410.129 121.144C397.695 107.445 391.056 102.6 378.768 100.109C366.49 97.6184 354.643 97.5203 346.926 99.4816Z" fill="#7D55FF"></path>
<path d="M374.324 82.4966V105.454C374.324 109.033 370.5 111.073 367.361 112.142C364.567 113.093 361.546 113.338 358.663 112.711C354.956 111.897 352.396 109.828 352.396 105.454V82.4966H374.324Z" fill="#EDB18C"></path>
<path d="M374.324 82.4966V101.002C368.577 99.7269 358.928 94.4411 352.396 90.5969V85.164L367.401 82.4966H374.324Z" fill="#231F20"></path>
<path d="M418.406 449.922H307.787L314.711 289.377C315.034 282.101 316.113 274.864 317.927 267.803L333.932 205.639L322.526 164.637C330.676 140.316 339.345 137.963 339.345 137.963H388.555C388.555 137.963 397.341 155.164 401.333 162.607L390.84 203.697L408.648 262.674C410.865 270.019 412.13 277.619 412.414 285.298L418.406 449.922Z" fill="#C4B6FF"></path>
<path d="M699.68 349.629H99.9647C92.2468 349.629 86 343.373 86 335.665C86 327.957 92.2468 321.7 99.9647 321.7H699.69C707.398 321.7 713.654 327.947 713.654 335.665C713.645 343.373 707.388 349.629 699.68 349.629Z" fill="#7D55FF"></path>
<path fill-rule="evenodd" clip-rule="evenodd" d="M397.501 101.286C400.225 101.547 402.222 103.967 401.961 106.692L396.911 159.383C396.65 162.107 394.229 164.104 391.505 163.843C388.78 163.582 386.783 161.162 387.044 158.437L392.095 105.746C392.356 103.021 394.776 101.025 397.501 101.286Z" fill="#C4B6FF"></path>
<path fill-rule="evenodd" clip-rule="evenodd" d="M328.591 100.874C331.294 100.443 333.835 102.284 334.266 104.986L341.837 152.382C342.269 155.085 340.428 157.626 337.725 158.057C335.022 158.489 332.481 156.648 332.05 153.945L324.479 106.55C324.047 103.847 325.888 101.306 328.591 100.874Z" fill="#C4B6FF"></path>
<path d="M333.149 276.423C332.031 276.423 331.188 277.394 331.276 278.502C332.413 292.163 344.721 318.444 364.501 321.798C367.502 322.308 380.868 321.994 384.055 322.004C404.659 322.092 421.115 294.261 422.458 278.502C422.556 277.394 421.703 276.423 420.585 276.423H333.149Z" fill="#7D55FF"></path>
<path d="M640.045 284.367C640.045 284.749 640.584 285.043 641.202 285.014C648.792 284.622 663.385 280.395 665.248 273.589C665.532 272.56 665.356 267.96 665.366 266.862C665.415 259.782 649.959 254.123 641.212 253.662C640.594 253.633 640.055 253.927 640.055 254.309V284.367H640.045Z" fill="#B5CDFB"></path>
<path fill-rule="evenodd" clip-rule="evenodd" d="M618.123 224.581C618.678 224.603 619.409 224.647 619.949 224.795C622.292 225.437 624.198 227.103 625.706 229.043C627.231 231.005 628.501 233.439 629.525 235.968C631.569 241.013 632.781 246.799 632.99 250.851L632.991 250.86C633.022 251.52 632.891 252.226 632.548 252.844C632.236 253.406 631.468 254.325 630.144 254.325H627.941V254.315H600.086C598.762 254.315 597.994 253.396 597.682 252.834C597.339 252.216 597.207 251.51 597.239 250.851L597.239 250.839C597.486 246.151 599.099 239.819 601.568 234.633C602.804 232.036 604.313 229.603 606.074 227.79C607.819 225.993 610.04 224.581 612.654 224.599L612.658 224.599C612.919 224.601 613.328 224.594 613.845 224.584C614.444 224.573 615.189 224.559 616.017 224.555C616.736 224.551 617.48 224.556 618.123 224.581ZM628.504 249.91C628.17 246.436 627.115 241.752 625.442 237.621C624.51 235.32 623.422 233.282 622.228 231.747C621.018 230.19 619.844 229.334 618.784 229.044L618.78 229.042C618.785 229.044 618.779 229.043 618.757 229.041C618.684 229.032 618.437 229.002 617.947 228.983C617.403 228.961 616.736 228.956 616.04 228.96C615.38 228.963 614.64 228.976 614.002 228.987C613.397 228.997 612.884 229.006 612.622 229.004C612.621 229.004 612.62 229.004 612.619 229.004L612.639 226.802L612.623 229.004C612.623 229.004 612.622 229.004 612.622 229.004C611.696 228.998 610.555 229.499 609.234 230.859C607.928 232.204 606.666 234.173 605.545 236.527C603.506 240.809 602.125 245.96 601.728 249.91H600.086C601.028 249.91 601.458 250.559 601.534 250.697C601.642 250.891 601.641 251.019 601.639 251.06L599.439 250.955L601.638 251.071C601.658 250.698 601.688 250.31 601.728 249.91H628.504Z" fill="#B5CDFB"></path>
<path d="M590.18 284.367C590.18 284.749 589.641 285.043 589.023 285.014C581.433 284.622 566.841 280.395 564.977 273.589C564.693 272.56 564.869 267.96 564.86 266.862C564.811 259.782 580.266 254.123 589.013 253.662C589.631 253.633 590.171 253.927 590.171 254.309V284.367H590.18Z" fill="#B5CDFB"></path>
<path d="M315.201 243.404C315.623 243.727 326.498 268.881 326.498 268.881C326.498 268.881 337.904 274.491 342.13 273.638C346.739 272.696 348.603 272.353 351.554 269.705C354.506 267.057 342.091 255.437 342.091 255.437L349.505 262.429C349.505 262.429 347.838 249.494 346.877 247.885C345.631 245.816 341.061 243.316 337.207 244.188C335.295 244.62 326.498 225.056 326.498 225.056L315.201 243.404Z" fill="#EDB18C"></path>
<path d="M360.446 276.52C360.446 276.52 339.637 247.767 334.017 248.326C328.398 248.885 353.699 276.52 353.699 276.52H360.446Z" fill="#B5CDFB"></path>
<path d="M255.27 590H111.867C111.867 581.821 118.496 575.202 126.665 575.202H240.462C248.64 575.202 255.27 581.831 255.27 590Z" fill="#7D55FF"></path>
<path d="M152.36 283.631H117.771V321.71H152.36V283.631Z" fill="#B5CDFB"></path>
<path d="M154.026 286.877H116.094C113.76 286.877 111.867 284.984 111.867 282.65C111.867 280.317 113.76 278.424 116.094 278.424H154.026C156.36 278.424 158.253 280.317 158.253 282.65C158.262 284.984 156.37 286.877 154.026 286.877Z" fill="#B5CDFB"></path>
<path d="M185.994 271.274H140.188V321.709H185.994V271.274Z" fill="#B5CDFB"></path>
<path d="M188.222 275.569H137.973C134.874 275.569 132.373 273.059 132.373 269.97C132.373 266.871 134.884 264.37 137.973 264.37H188.222C191.321 264.37 193.821 266.881 193.821 269.97C193.821 273.059 191.311 275.569 188.222 275.569Z" fill="#B5CDFB"></path>
<path d="M259.641 271.275H213.834V321.71H259.641V271.275Z" fill="#B5CDFB"></path>
<path d="M261.857 275.57H211.607C208.509 275.57 206.008 273.059 206.008 269.97C206.008 266.871 208.518 264.371 211.607 264.371H261.857C264.956 264.371 267.456 266.881 267.456 269.97C267.466 273.059 264.956 275.57 261.857 275.57Z" fill="#B5CDFB"></path>
<path d="M261.864 254.299H211.615V265.508H261.864V254.299Z" fill="#B5CDFB"></path>
<path d="M394.968 47.6049C394.968 67.2378 381.671 91.1758 364.793 91.1758C347.916 91.1758 333.863 67.2378 333.863 47.6049C333.863 27.972 347.926 20.0776 364.793 20.0776C381.661 20.0776 394.968 27.972 394.968 47.6049Z" fill="#EDB18C"></path>
<path d="M330.529 35.2288L336.933 51.449L389.761 53.8516C389.761 53.8516 398.695 31.4238 393.243 22.6174L346.544 16.606L330.529 35.2288Z" fill="#0E0F25"></path>
<path d="M364.981 26.814C348.761 26.0197 337.856 44.8582 334.492 49.6537C333.756 50.703 333.295 49.7321 333.315 49.2418C333.864 34.2278 340.925 17.282 363.608 18.4195C389.919 19.714 399.284 32.9236 396.215 53.8509C395.813 56.5576 387.173 27.9124 364.981 26.814Z" fill="#C4B6FF"></path>
<path d="M397.678 39.7295C396.384 40.514 394.756 40.6611 393.089 40.1414C392.265 39.8668 391.382 39.4059 390.657 38.5625C390.47 38.3566 390.304 38.1212 390.166 37.8662C390.009 37.6113 389.882 37.3367 389.784 37.0425C389.666 36.7483 389.597 36.4443 389.548 36.1305C389.519 35.9834 389.499 35.7774 389.48 35.6794L389.411 35.4048C388.656 32.5118 388.98 29.5698 390.451 26.9613C391.167 25.6472 392.196 24.4606 393.265 23.3524C394.354 22.2443 395.462 21.2146 396.57 20.2143C397.668 19.214 398.835 18.2333 400.267 17.488C401.679 16.7427 403.337 16.2328 405.043 16.0857C405.896 16.0072 406.749 16.0072 407.583 16.0857C408.407 16.1641 409.23 16.3014 410.044 16.5564C410.858 16.8016 411.711 17.1644 412.555 17.7234C412.976 17.9882 413.408 18.3608 413.82 18.7139C414.232 19.1552 414.644 19.5376 414.997 20.1064C415.742 21.1361 416.262 22.5287 416.399 23.8624C416.487 24.5488 416.458 25.1666 416.419 25.8041C416.34 26.3827 416.242 27.0103 416.085 27.5104C415.477 29.6483 414.457 31.1487 413.388 32.3941C412.3 33.6298 411.133 34.63 409.887 35.4538C408.632 36.2678 407.22 36.7973 405.759 37.1798C404.298 37.5622 402.807 37.7976 401.444 38.1801C400.061 38.5331 398.806 39.0332 397.678 39.7295ZM397.207 38.9842C398.306 38.2683 399.267 37.3269 400.071 36.2089C400.875 35.091 401.522 33.7769 402.14 32.5412C402.768 31.3056 403.386 30.1386 404.072 29.1678L406.024 26.4905C406.602 25.6864 407.063 24.9509 407.308 24.5782C407.396 24.4606 407.387 24.4311 407.465 24.3723C407.485 24.3527 407.553 24.3233 407.573 24.3429C407.642 24.3625 407.789 24.441 407.828 24.3625C407.995 24.2056 407.514 23.5584 406.808 22.8719C406.073 22.1658 405.229 21.3911 404.327 20.8615C403.425 20.3418 402.366 20.0084 401.326 20.2535C400.296 20.4791 399.306 21.1361 398.659 22.1168C398.002 23.0778 397.688 24.3037 397.59 25.5491C397.472 26.7945 397.531 28.0694 397.423 29.2658C397.256 31.6783 396.491 33.924 394.962 36.2383L394.824 36.4541C394.775 36.5227 394.756 36.4737 394.716 36.4933C394.638 36.5031 394.55 36.5325 394.491 36.562C394.412 36.6012 394.344 36.6502 394.295 36.7091C394.226 36.7679 394.177 36.8463 394.148 36.9346C393.981 37.2876 394.03 37.8368 394.305 38.2781C394.569 38.7292 395.05 39.0921 395.589 39.2392C396.129 39.3863 396.737 39.298 397.207 38.9842Z" fill="#C4B6FF"></path>
<path d="M389.74 36.6411C389.574 36.6215 389.407 36.592 389.26 36.6018C389.123 36.592 388.926 36.6411 388.956 36.6607C388.975 36.6607 388.995 36.6509 389.015 36.6313C389.064 36.6018 389.103 36.5528 389.132 36.4842C389.221 36.3077 389.142 36.1507 389.142 36.1311C389.103 36.0527 389.152 36.0919 389.201 36.0919C389.299 36.1115 389.446 36.1311 389.593 36.1311C390.192 36.1213 390.829 35.8173 391.153 35.3564C391.319 35.1309 391.417 34.8857 391.427 34.6503V34.4738L391.604 34.2384L391.957 33.7579C392.447 33.1401 392.947 32.5321 393.496 32.0025C395.683 29.8255 398.615 28.6683 401.832 28.482C403.43 28.3839 405.058 28.4525 406.637 28.5016L411.315 28.5996C412.884 28.6977 414.551 28.8742 416.248 29.5313C417.944 30.1589 419.621 31.3161 420.808 32.7773C421.426 33.4931 421.965 34.2581 422.377 35.4054C422.583 35.9644 422.74 36.6607 422.759 37.4648C422.789 38.269 422.612 39.2594 422.161 40.1715C421.72 41.0835 421.033 41.8386 420.376 42.3485C419.719 42.8683 419.072 43.2115 418.484 43.4665C417.317 43.9568 416.316 44.1824 415.385 44.3393C411.727 44.9081 408.726 44.6041 405.794 43.9274C404.343 43.5744 402.921 43.2017 401.567 42.6035C400.204 42.0249 398.91 41.2306 397.635 40.3872C396.36 39.5438 395.095 38.6711 393.791 38.0042C392.476 37.3373 391.123 36.8568 389.74 36.6411ZM389.868 35.7683C391.29 35.9546 392.722 36.0036 394.202 35.8664C395.683 35.7389 397.193 35.4349 398.694 35.1701C400.194 34.8857 401.675 34.6601 403.107 34.6209C404.539 34.5621 405.902 34.6896 407.255 34.7876C408.599 34.8955 409.913 35.0426 411.168 35.2093C412.413 35.376 413.629 35.5525 414.6 35.6114C415.081 35.6506 415.493 35.631 415.659 35.6604C415.738 35.6702 415.738 35.6996 415.65 35.8075C415.571 35.9056 415.385 36.1311 415.287 36.4253C415.179 36.7097 415.179 36.9941 415.228 37.0922C415.267 37.1902 415.355 37.1706 415.395 37.0431C415.483 36.8078 415.434 36.2684 415.375 35.7389C415.257 34.6896 414.973 33.6599 414.247 32.7969C413.541 31.9339 412.364 31.4141 411.119 31.2768C409.864 31.1297 408.54 31.4337 407.334 32.0221C406.118 32.6204 405.019 33.5128 403.96 34.3757C401.842 36.1311 399.665 37.4746 396.909 38.0728C396.232 38.2396 395.507 38.3474 394.771 38.4553L394.212 38.524L393.928 38.5534L393.467 38.6416C392.849 38.7299 392.261 38.7103 391.731 38.6122C390.662 38.3965 389.838 37.9846 389.093 37.5139C388.907 37.3962 388.721 37.2589 388.524 37.0922C388.426 36.9941 388.328 36.9255 388.191 36.6901C388.142 36.6018 388.034 36.3469 388.162 36.0821C388.211 35.9742 388.289 35.8958 388.367 35.8369C388.426 35.7977 388.485 35.7683 388.544 35.7487C388.907 35.6408 389.074 35.6996 389.289 35.6996L389.868 35.7683Z" fill="#C4B6FF"></path>
<path fill-rule="evenodd" clip-rule="evenodd" d="M364.602 57.337C364.887 57.4437 365.031 57.7611 364.924 58.0459L364.409 57.8525L363.893 57.6592C364 57.3745 364.317 57.2302 364.602 57.337ZM361.281 71.7567C361.26 71.7058 361.235 71.6098 361.222 71.451C361.192 71.0894 361.233 70.5571 361.344 69.8817C361.565 68.5422 362.032 66.7848 362.565 65.0211C363.096 63.2627 363.686 61.5185 364.144 60.2126C364.372 59.5601 364.568 59.0177 364.706 58.6388C364.775 58.4493 364.83 58.3008 364.867 58.1997L364.91 58.0847L364.924 58.0459L364.409 57.8525C363.893 57.6592 363.893 57.6591 363.893 57.6592L363.878 57.7001L363.834 57.8175C363.796 57.9202 363.741 58.0704 363.671 58.2617C363.532 58.6443 363.335 59.1909 363.104 59.8484C362.644 61.1628 362.048 62.9233 361.511 64.7026C360.975 66.4767 360.49 68.2901 360.258 69.7032C360.143 70.4041 360.083 71.0435 360.125 71.5427C360.145 71.7908 360.194 72.0439 360.301 72.2618C360.413 72.4903 360.608 72.7109 360.914 72.798C361.933 73.0861 362.844 73.0864 363.499 73.0142C363.828 72.9781 364.094 72.9238 364.282 72.8773C364.376 72.854 364.45 72.8327 364.503 72.8165C364.53 72.8084 364.551 72.8016 364.566 72.7964L364.585 72.79L364.591 72.7878L364.593 72.787L364.595 72.7865C364.595 72.7865 364.595 72.7864 364.409 72.2683L364.595 72.7865C364.881 72.6835 365.03 72.3679 364.927 72.0818C364.824 71.7958 364.509 71.6473 364.223 71.7501L364.217 71.7518C364.21 71.7542 364.198 71.7582 364.181 71.7636C364.146 71.7742 364.091 71.7901 364.017 71.8083C363.871 71.8445 363.652 71.8895 363.379 71.9196C362.845 71.9783 362.108 71.9798 361.281 71.7567Z" fill="#0E0F25"></path>
<path d="M352.398 62.9813C352.398 64.3837 347.328 64.3837 347.328 62.9813C347.328 61.579 348.466 60.4414 349.868 60.4414C351.27 60.4414 352.398 61.5888 352.398 62.9813Z" fill="#0E0F25"></path>
<path d="M379.396 64.3939C379.396 65.7963 374.326 65.7963 374.326 64.3939C374.326 62.9916 375.464 61.854 376.866 61.854C378.259 61.8638 379.396 62.9916 379.396 64.3939Z" fill="#0E0F25"></path>
<path d="M357.016 78.1426C357.016 78.1426 360.948 83.4774 363.91 83.752C366.871 84.0168 371.814 78.1426 371.814 78.1426H357.016Z" fill="white"></path>
<path fill-rule="evenodd" clip-rule="evenodd" d="M350.404 57.1168C350.437 57.4191 350.218 57.6906 349.916 57.7232C348.559 57.8692 347.477 58.1962 346.737 58.4843C346.367 58.6283 346.084 58.7624 345.896 58.8587C345.802 58.9068 345.732 58.9455 345.687 58.9712C345.664 58.9841 345.648 58.9937 345.638 58.9996L345.628 59.0057C345.628 59.0057 345.628 59.0056 345.628 59.0057C345.628 59.0056 345.627 59.0059 345.336 58.5388L345.044 58.0717C344.786 58.2328 344.708 58.5724 344.869 58.8304C345.03 59.0883 345.37 59.1665 345.628 59.0057M345.336 58.5388C345.044 58.0717 345.044 58.0718 345.044 58.0717L345.046 58.0708L345.048 58.0695L345.054 58.0658L345.073 58.0541C345.09 58.0443 345.113 58.0309 345.142 58.0142C345.2 57.9808 345.285 57.9344 345.394 57.8785C345.612 57.7667 345.93 57.6169 346.337 57.4582C347.152 57.1407 348.33 56.7862 349.798 56.6282C350.1 56.5957 350.372 56.8144 350.404 57.1168" fill="#0E0F25"></path>
<path fill-rule="evenodd" clip-rule="evenodd" d="M376.591 57.9996C376.624 57.6972 376.895 57.4785 377.198 57.511C378.666 57.669 379.843 58.0236 380.658 58.341C381.066 58.4998 381.383 58.6495 381.601 58.7613C381.71 58.8172 381.795 58.8636 381.853 58.897C381.883 58.9137 381.906 58.9272 381.922 58.9369L381.941 58.9487L381.948 58.9524L381.95 58.9536L381.95 58.9541L381.951 58.9543C381.951 58.9544 381.951 58.9545 381.659 59.4216L381.951 58.9545C382.209 59.1156 382.288 59.4553 382.127 59.7132C381.966 59.9709 381.627 60.0496 381.369 59.8893C381.369 59.8893 381.369 59.8892 381.368 59.8891C381.368 59.889 381.368 59.889 381.368 59.8889L381.368 59.889L381.367 59.8885L381.357 59.8824C381.347 59.8765 381.331 59.8669 381.309 59.854C381.263 59.8283 381.193 59.7897 381.099 59.7415C380.911 59.6452 380.628 59.5112 380.258 59.3671C379.519 59.079 378.436 58.752 377.08 58.606C376.777 58.5734 376.559 58.3019 376.591 57.9996Z" fill="#0E0F25"></path>
<path d="M336.586 64.3053C339.184 63.6666 340.484 59.8701 339.49 55.8255C338.496 51.781 335.584 49.0199 332.986 49.6586C330.388 50.2972 329.087 54.0937 330.081 58.1383C331.076 62.1829 333.988 64.9439 336.586 64.3053Z" fill="#EDB18C"></path>
<path d="M398.391 58.3366C399.385 54.292 398.085 50.4955 395.486 49.8568C392.888 49.2182 389.976 51.9792 388.982 56.0238C387.988 60.0684 389.288 63.8649 391.886 64.5035C394.484 65.1422 397.397 62.3811 398.391 58.3366Z" fill="#EDB18C"></path>
<path d="M365.469 590H335.432V585.499C335.432 577.487 341.924 570.995 349.936 570.995H350.956C358.968 570.995 365.46 577.487 365.46 585.499V590H365.469Z" fill="#C4B6FF"></path>
<path d="M351.409 590H339.063C339.063 590 336.258 577.801 345.829 566.611C351.144 572.015 356.332 571.711 361.422 566.611C361.422 566.611 361.991 573.525 363.481 577.801C364.972 582.076 363.481 590 363.481 590H351.409Z" fill="#C4B6FF"></path>
<path d="M374.248 590H404.286V585.499C404.286 577.487 397.794 570.995 389.782 570.995H388.762C380.75 570.995 374.258 577.487 374.258 585.499V590H374.248Z" fill="#C4B6FF"></path>
<path d="M393.891 566.611C388.575 572.015 383.388 571.711 378.298 566.611C378.298 566.611 377.729 573.525 376.239 577.801C374.748 582.076 376.239 590 376.239 590H400.647C400.657 590 403.462 577.801 393.891 566.611Z" fill="#C4B6FF"></path>
<path d="M334.912 256.26C334.912 256.26 344.984 256.78 349.514 262.419C354.045 268.058 352.878 270.941 347.504 272.284C342.13 273.628 334.912 265.93 334.912 265.93V256.26Z" fill="#EDB18C"></path>
<path d="M340.217 158.91L336.941 137.953H393.987L391.976 163.529L340.217 158.91Z" fill="#C4B6FF"></path>
<path d="M651.803 248.317H578.42V321.7H651.803V248.317Z" fill="#B5CDFB"></path>
<path d="M657.365 240.874H572.861V253.662H657.365V240.874Z" fill="#B5CDFB"></path>
<path d="M427.281 275.57C427.281 275.57 423.152 296.272 409.6 299.253C396.047 302.234 414.826 276.521 414.826 276.521L408.187 279.463C406.981 280.003 405.765 278.708 406.383 277.541C408.03 274.413 411.522 270.098 418.406 269.343C429.409 268.137 422.456 264.332 422.456 264.332L427.281 275.57Z" fill="#EDB18C"></path>
<path d="M386.26 147.799C386.26 147.799 391.232 139.101 394.644 141.621C398.067 144.151 388.829 149.535 386.26 147.799Z" fill="#B5CDFB"></path>
<path d="M385.613 147.74C385.613 147.74 396.499 145.436 396.93 150.123C397.371 154.821 386.074 151.143 385.613 147.74Z" fill="#B5CDFB"></path>
<path d="M386.084 147.957C386.084 147.957 394.155 153.89 391.262 156.988C388.369 160.097 384.074 150.31 386.084 147.957Z" fill="#B5CDFB"></path>
<path d="M386.564 147.652C386.564 147.652 387.662 159.234 382.739 159.126C377.797 159.018 382.965 147.73 386.564 147.652Z" fill="#B5CDFB"></path>
<path d="M385.945 147.76C385.945 147.76 379.129 155.105 376.373 151.879C373.628 148.643 383.846 145.495 385.945 147.76Z" fill="#B5CDFB"></path>
<path d="M387.281 148.388C387.281 148.388 374.67 148.143 375.395 142.847C376.131 137.552 387.654 144.514 387.281 148.388Z" fill="#B5CDFB"></path>
<path d="M386.135 149.133C386.135 149.133 380.202 137.944 385.204 136.002C390.205 134.05 389.715 147.564 386.135 149.133Z" fill="#B5CDFB"></path>
</svg>
