<svg width="200" height="150" viewBox="0 0 800 600" fill="none" xmlns="http://www.w3.org/2000/svg" data-reactroot="">
<rect x="31.6816" y="6" width="652.451" height="489.65" fill="#B5CDFB"></rect>
<path d="M602.27 155.307L622.395 125.468L354.779 123.224L354.779 155.307H602.27Z" fill="#9E9A91" fill-opacity="0.1"></path>
<path fill-rule="evenodd" clip-rule="evenodd" d="M381.949 182.849L384.575 178.694C384.597 178.732 384.619 178.771 384.642 178.811L384.647 178.802C388.655 179.825 399.076 183.63 403.885 188.644C408.694 193.658 412.284 199.346 413.478 201.563L413.422 201.628C413.441 201.636 413.459 201.644 413.478 201.652L409.961 206.928C399.909 226.11 376.807 255.775 364.456 245.958C348.999 233.673 361.442 217.067 369.194 206.721C369.703 206.041 370.193 205.388 370.652 204.765C366.155 208.945 356.235 215.29 352.54 207.231C350.505 202.793 359.143 197.814 367.98 192.719C372.834 189.921 377.748 187.088 380.988 184.291L381.949 182.849Z" fill="#9E9A91" fill-opacity="0.1"></path>
<path d="M414.316 207.319L419.305 201.564C418.111 199.347 414.521 193.659 409.712 188.645C404.902 183.631 394.482 179.826 390.474 178.803L386.696 184.47C389.596 185.706 397.586 189.438 402.293 192.61C407 195.782 412.27 203.738 414.316 207.319Z" fill="#C4B6FF"></path>
<path fill-rule="evenodd" clip-rule="evenodd" d="M388.639 166.155C389.2 165.652 389.909 165.371 390.759 165.371C391.816 165.371 392.515 166.276 392.937 167.334C393.377 168.435 393.619 169.926 393.657 171.566C393.734 174.843 392.999 178.876 391.186 181.853L391.009 182.144L390.673 182.085C390.137 181.992 389.696 181.56 389.348 181.075C388.985 180.567 388.647 179.891 388.348 179.122C387.749 177.58 387.275 175.585 387.072 173.609C386.87 171.642 386.931 169.639 387.446 168.103C387.704 167.332 388.087 166.649 388.639 166.155ZM390.56 180.942C392.082 178.212 392.728 174.591 392.657 171.589C392.621 170.017 392.388 168.655 392.009 167.705C391.613 166.713 391.151 166.371 390.759 166.371C390.148 166.371 389.679 166.566 389.306 166.9C388.923 167.242 388.617 167.755 388.394 168.421C387.945 169.761 387.871 171.601 388.067 173.507C388.262 175.404 388.717 177.31 389.28 178.759C389.562 179.486 389.864 180.078 390.162 180.493C390.313 180.704 390.447 180.847 390.56 180.942Z" fill="#C4B6FF"></path>
<path d="M370.282 245.958C383.461 256.433 408.878 221.959 417.625 203.229C408.08 205.867 395.085 189.673 389.686 181.123C384.192 189.956 354.789 199.43 358.366 207.231C362.061 215.29 371.981 208.945 376.479 204.765C369.024 214.865 353.809 232.866 370.282 245.958Z" fill="#C4B6FF"></path>
<path fill-rule="evenodd" clip-rule="evenodd" d="M395.295 138.635L396.285 138.5C397.276 138.366 397.276 138.366 397.276 138.366L397.277 138.372L397.279 138.388L397.287 138.449C397.294 138.503 397.305 138.582 397.317 138.684C397.343 138.889 397.38 139.188 397.423 139.569C397.51 140.331 397.624 141.419 397.734 142.732C397.955 145.354 398.162 148.883 398.105 152.489C398.049 156.081 397.729 159.815 396.867 162.817C396.024 165.75 394.551 168.363 391.908 169.054C390.117 169.522 388.63 169.332 387.436 168.677C386.266 168.036 385.492 167.012 384.98 166.012C384.467 165.01 384.185 163.97 384.031 163.198C383.953 162.808 383.905 162.477 383.877 162.241C383.863 162.122 383.854 162.027 383.848 161.96C383.845 161.926 383.843 161.899 383.841 161.88L383.84 161.856L383.839 161.849L383.839 161.846L383.839 161.845C383.839 161.844 383.839 161.844 384.837 161.783L383.839 161.845C383.805 161.294 384.225 160.819 384.776 160.785C385.327 160.752 385.801 161.171 385.835 161.721C385.835 161.722 385.835 161.721 385.835 161.721L385.835 161.723L385.836 161.733C385.837 161.743 385.838 161.761 385.84 161.785C385.844 161.833 385.852 161.908 385.863 162.004C385.886 162.196 385.926 162.475 385.992 162.805C386.126 163.473 386.361 164.319 386.76 165.101C387.161 165.884 387.695 166.539 388.398 166.924C389.076 167.296 390.025 167.479 391.401 167.119C392.939 166.717 394.135 165.085 394.944 162.265C395.734 159.515 396.05 155.988 396.106 152.458C396.161 148.941 395.959 145.483 395.741 142.9C395.633 141.609 395.521 140.54 395.436 139.795C395.393 139.422 395.358 139.131 395.333 138.933C395.321 138.835 395.311 138.759 395.304 138.709L395.297 138.653L395.295 138.635Z" fill="#C4B6FF"></path>
<path fill-rule="evenodd" clip-rule="evenodd" d="M420.179 138.635L421.17 138.5C422.161 138.366 422.161 138.366 422.161 138.366L422.162 138.372L422.164 138.388L422.172 138.449C422.179 138.503 422.189 138.582 422.202 138.684C422.228 138.889 422.264 139.188 422.308 139.569C422.394 140.331 422.508 141.419 422.619 142.732C422.84 145.354 423.047 148.883 422.99 152.489C422.933 156.081 422.614 159.815 421.751 162.817C420.909 165.75 419.435 168.363 416.792 169.054C415.001 169.522 413.515 169.332 412.321 168.677C411.151 168.036 410.376 167.012 409.865 166.012C409.352 165.01 409.07 163.97 408.916 163.198C408.837 162.808 408.79 162.477 408.762 162.241C408.748 162.122 408.738 162.027 408.732 161.96C408.729 161.926 408.727 161.899 408.726 161.88L408.724 161.856L408.724 161.849L408.724 161.846L408.724 161.845C408.724 161.844 408.723 161.844 409.722 161.783L408.724 161.845C408.69 161.294 409.11 160.819 409.661 160.785C410.212 160.752 410.685 161.171 410.72 161.721C410.72 161.722 410.72 161.721 410.72 161.721L410.72 161.723L410.721 161.733C410.721 161.743 410.723 161.761 410.725 161.785C410.729 161.833 410.736 161.908 410.748 162.004C410.771 162.196 410.81 162.475 410.877 162.805C411.01 163.473 411.245 164.319 411.645 165.101C412.046 165.884 412.58 166.539 413.282 166.924C413.961 167.296 414.91 167.479 416.286 167.119C417.824 166.717 419.019 165.085 419.829 162.265C420.619 159.515 420.935 155.988 420.99 152.458C421.046 148.941 420.843 145.483 420.626 142.9C420.517 141.609 420.405 140.54 420.321 139.795C420.278 139.422 420.243 139.131 420.218 138.933C420.205 138.835 420.196 138.759 420.189 138.709L420.182 138.653L420.179 138.635Z" fill="#C4B6FF"></path>
<path fill-rule="evenodd" clip-rule="evenodd" d="M445.065 138.635L446.056 138.5C447.047 138.366 447.047 138.366 447.047 138.366L447.048 138.372L447.05 138.388L447.058 138.449C447.065 138.503 447.075 138.582 447.088 138.684C447.114 138.889 447.15 139.188 447.193 139.569C447.28 140.331 447.394 141.419 447.505 142.732C447.725 145.354 447.933 148.883 447.876 152.489C447.819 156.081 447.5 159.815 446.637 162.817C445.795 165.75 444.321 168.363 441.678 169.054C439.887 169.522 438.4 169.332 437.206 168.677C436.037 168.036 435.262 167.012 434.75 166.012C434.238 165.01 433.956 163.97 433.801 163.198C433.723 162.808 433.676 162.477 433.648 162.241C433.633 162.122 433.624 162.027 433.618 161.96C433.615 161.926 433.613 161.899 433.612 161.88L433.61 161.856L433.61 161.849L433.609 161.846L433.609 161.845C433.609 161.844 433.609 161.844 434.607 161.783L433.609 161.845C433.576 161.294 433.996 160.819 434.547 160.785C435.098 160.752 435.571 161.171 435.605 161.721C435.605 161.722 435.605 161.721 435.605 161.721L435.606 161.723L435.606 161.733C435.607 161.743 435.608 161.761 435.611 161.785C435.615 161.833 435.622 161.908 435.633 162.004C435.656 162.196 435.696 162.475 435.762 162.805C435.896 163.473 436.131 164.319 436.531 165.101C436.932 165.884 437.466 166.539 438.168 166.924C438.846 167.296 439.796 167.479 441.172 167.119C442.71 166.717 443.905 165.085 444.715 162.265C445.505 159.515 445.82 155.988 445.876 152.458C445.932 148.941 445.729 145.483 445.512 142.9C445.403 141.609 445.291 140.54 445.206 139.795C445.164 139.422 445.128 139.131 445.104 138.933C445.091 138.835 445.081 138.759 445.075 138.709L445.067 138.653L445.065 138.635Z" fill="#C4B6FF"></path>
<path d="M374.822 127.947L354.779 116.362V135.85L374.822 147.373V127.947Z" fill="#7D55FF"></path>
<path d="M632.282 123.549L612.239 116.46V135.948L632.282 147.47V123.549Z" fill="#7D55FF"></path>
<rect x="354.779" y="116.46" width="257.459" height="19.3907" fill="#7D55FF"></rect>
<rect x="374.822" y="123.409" width="257.459" height="23.9938" fill="#C4B6FF"></rect>
<path fill-rule="evenodd" clip-rule="evenodd" d="M389.541 165.636C389.847 165.51 390.287 165.371 390.759 165.371C391.303 165.371 391.756 165.643 392.111 166.031C392.461 166.415 392.742 166.939 392.966 167.536C393.414 168.733 393.673 170.336 393.723 172.033C393.772 173.735 393.612 175.564 393.201 177.221C392.792 178.869 392.123 180.393 391.12 181.437L390.399 180.744C391.232 179.877 391.843 178.544 392.231 176.98C392.617 175.425 392.77 173.688 392.723 172.062C392.675 170.433 392.427 168.947 392.03 167.887C391.83 167.356 391.605 166.96 391.372 166.705C391.144 166.455 390.94 166.371 390.759 166.371C389.802 166.371 389.646 166.371 389.163 166.196C389.195 166.055 389.008 165.902 389.008 165.902L389.01 165.901L389.013 165.899L389.022 165.893C389.03 165.888 389.041 165.882 389.054 165.874C389.08 165.859 389.117 165.838 389.163 165.814C389.255 165.765 389.384 165.7 389.541 165.636Z" fill="#C4B6FF"></path>
<path d="M390.401 178.694L386.696 184.558C387.89 186.775 391.48 192.463 396.289 197.477C401.099 202.491 411.519 206.295 415.527 207.318L419.305 201.652C416.405 200.416 408.415 196.684 403.708 193.512C399.001 190.339 392.448 182.275 390.401 178.694Z" fill="#7D55FF"></path>
<ellipse cx="503.012" cy="117.897" rx="19.1008" ry="1.375" fill="#4A3D24" fill-opacity="0.3"></ellipse>
<path opacity="0.8" fill-rule="evenodd" clip-rule="evenodd" d="M521.913 51.6962C506.636 53.3418 497.944 53.2995 482.244 51.6962V72.0851C482.244 82.1197 489.696 90.4138 499.368 91.7357V114.277H490.126C489.022 114.277 488.126 115.172 488.126 116.277V117.896H516.031V116.277C516.031 115.172 515.135 114.277 514.031 114.277H504.789V91.7357C514.461 90.4139 521.913 82.1197 521.913 72.0851V51.6962Z" fill="#C4B6FF"></path>
<path d="M579.721 51.6863C579.721 51.6863 556.541 49.7596 540.32 51.6863C543.055 52.1834 553.62 53.2399 560.58 53.0535C572.7 52.7289 579.721 51.6863 579.721 51.6863Z" fill="#C4B6FF"></path>
<g opacity="0.8">
<ellipse cx="561.031" cy="117.896" rx="19.1008" ry="1.375" fill="#005B9D"></ellipse>
<path fill-rule="evenodd" clip-rule="evenodd" d="M579.932 51.6962C564.656 53.3418 555.963 53.2995 540.264 51.6962V72.0851C540.264 82.1197 547.715 90.4138 557.387 91.7357V114.277H548.146C547.041 114.277 546.146 115.172 546.146 116.277V117.896H574.05V116.277C574.05 115.172 573.155 114.277 572.05 114.277H562.809V91.7357C572.48 90.4139 579.932 82.1197 579.932 72.0851V51.6962Z" fill="#C4B6FF"></path>
</g>
<ellipse cx="434.607" cy="118.074" rx="20.3793" ry="1.19824" fill="#4A3D24" fill-opacity="0.3"></ellipse>
<path d="M441.948 73.7938C435.878 77.8155 433.966 85.0495 433.542 91.336C435.775 82.4614 440.858 79.425 444.224 77.8155L441.948 73.7938Z" fill="#7D55FF"></path>
<path d="M433.696 89.1613C432.724 84.8655 425.899 83.7266 428.224 81.8488C430.549 79.9711 435.128 85.0186 433.696 89.1613Z" fill="#7D55FF"></path>
<path d="M454.253 99.5556C454.253 110.765 445.166 118.719 433.957 118.719C422.747 118.719 413.66 110.765 413.66 99.5556C413.66 88.3461 424.414 83.5707 433.957 87.4125C444.005 82.6109 454.253 88.3461 454.253 99.5556Z" fill="#7D55FF"></path>
<path d="M521.703 51.6863C521.703 51.6863 498.522 49.7596 482.302 51.6863C485.036 52.1834 495.601 53.2399 502.562 53.0535C514.682 52.7289 521.703 51.6863 521.703 51.6863Z" fill="#C4B6FF"></path>
<path d="M57.6621 366.8H687.116" stroke="#ECE4D3"></path>
<path d="M57.6621 364.831H687.116" stroke="#ECE4D3"></path>
<path d="M57.6621 360.894H687.116" stroke="#ECE4D3"></path>
<path d="M57.6621 358.925H687.116" stroke="#ECE4D3"></path>
<path d="M57.6621 354.987H687.116" stroke="#ECE4D3"></path>
<path d="M57.6621 353.019H687.116" stroke="#ECE4D3"></path>
<path d="M57.6621 349.081H687.116" stroke="#ECE4D3"></path>
<path d="M57.6621 347.112H687.116" stroke="#ECE4D3"></path>
<path d="M57.6621 342.19H687.116" stroke="#ECE4D3" stroke-width="4"></path>
<path d="M57.6621 372.134H687.116" stroke="#ECE4D3" stroke-width="4"></path>
<path d="M94.9307 475.815L682.725 475.815L693.3 499.061L94.9307 559.949V475.815Z" fill="#C4B6FF"></path>
<rect x="94.9307" y="488.672" width="585.061" height="87.4653" fill="#7D55FF"></rect>
<path d="M237.197 488.672V544.669" stroke="#B8B1A1"></path>
<path d="M421.271 488.672V544.67" stroke="#B8B1A1"></path>
<path d="M554.919 357.19C557.374 344.421 586.56 281.349 602.935 243.662C606.303 244.865 602.327 252.794 606.919 264.33C612.66 278.751 597.914 295.414 594.633 317.938C591.352 340.463 605.985 373.421 607.385 386.607C608.505 397.155 599.034 420.816 588.386 430.328C577.572 410.999 552.463 369.959 554.919 357.19Z" fill="#9E9A91" fill-opacity="0.1"></path>
<path d="M595.138 221.199V203.642H603.087L605.027 204.504H603.087V221.199H597.176L597.181 221.85L595.138 221.199Z" fill="#DBDBDB"></path>
<path d="M597.069 221.972V204.414H605.018V221.972H597.069Z" fill="#7D55FF"></path>
<path fill-rule="evenodd" clip-rule="evenodd" d="M602.08 226.285V215.907L600.082 215.985V226.362C600.189 229.127 603.663 230.285 605.408 228.138L607.351 225.746C607.7 225.317 607.634 224.687 607.206 224.339C606.777 223.991 606.147 224.056 605.799 224.484L603.856 226.876C603.274 227.592 602.116 227.206 602.08 226.285Z" fill="#DBDBDB"></path>
<path fill-rule="evenodd" clip-rule="evenodd" d="M601.273 226.377C601.918 225.773 602.747 225.443 603.72 225.443C605.093 225.443 605.949 226.621 606.432 227.717C606.954 228.903 607.273 230.479 607.381 232.178C607.598 235.566 606.995 239.767 605.105 242.87L604.751 243.452L604.079 243.335C603.344 243.207 602.795 242.635 602.42 242.128C602.009 241.573 601.633 240.852 601.3 240.054C600.632 238.452 600.08 236.393 599.805 234.357C599.532 232.339 599.514 230.231 600.005 228.578C600.252 227.745 600.649 226.96 601.273 226.377ZM603.941 240.816C605.135 238.281 605.561 235.054 605.385 232.306C605.286 230.746 604.997 229.422 604.601 228.523C604.166 227.534 603.795 227.443 603.72 227.443C603.233 227.443 602.899 227.595 602.639 227.838C602.358 228.1 602.107 228.526 601.922 229.148C601.549 230.405 601.529 232.187 601.787 234.088C602.041 235.971 602.552 237.859 603.146 239.284C603.413 239.925 603.686 240.443 603.941 240.816Z" fill="#C4B6FF"></path>
<path fill-rule="evenodd" clip-rule="evenodd" d="M603.032 226.393C603.338 226.267 603.778 226.128 604.251 226.128C604.794 226.128 605.248 226.4 605.602 226.788C605.952 227.172 606.234 227.697 606.457 228.293C606.905 229.49 607.164 231.093 607.214 232.79C607.263 234.492 607.104 236.321 606.693 237.978C606.284 239.626 605.614 241.15 604.611 242.194L603.89 241.501C604.723 240.635 605.334 239.301 605.722 237.737C606.108 236.182 606.262 234.445 606.214 232.82C606.167 231.19 605.918 229.704 605.521 228.644C605.322 228.113 605.096 227.717 604.863 227.462C604.635 227.213 604.431 227.128 604.251 227.128C603.293 227.128 603.137 227.128 602.654 226.953C602.686 226.812 602.499 226.659 602.499 226.659L602.501 226.658L602.504 226.656L602.514 226.65C602.521 226.646 602.532 226.639 602.545 226.632C602.571 226.616 602.608 226.595 602.654 226.571C602.746 226.522 602.875 226.458 603.032 226.393Z" fill="#C4B6FF"></path>
<path d="M631.827 374.879C635.717 369.295 628.398 290.129 611.343 252.23C600.985 255.262 600.449 360.544 595.719 393.272C606.134 389.467 627.938 380.462 631.827 374.879Z" fill="#C4B6FF"></path>
<path d="M564.283 354.478C566.789 341.448 592.263 274.304 603.244 241.756C606.681 242.985 609.941 248.504 614.627 260.276C620.485 274.991 615.761 294.308 612.413 317.293C609.064 340.278 623.997 373.909 625.425 387.364C626.568 398.128 605.122 420.231 594.256 429.938C583.221 410.214 561.777 367.508 564.283 354.478Z" fill="#C4B6FF"></path>
<path d="M579.647 363.168C574.221 355.842 594.01 279.161 603.283 241.84C623.529 253.356 624.689 334.4 629.625 361.055C631.402 370.647 612.227 396.251 602.417 407.853C597.087 396.011 585.072 370.495 579.647 363.168Z" fill="#C4B6FF"></path>
<path d="M579.647 363.168C574.221 355.842 594.01 279.161 603.283 241.84C623.529 253.356 624.689 334.4 629.625 361.055C631.402 370.647 612.227 396.251 602.417 407.853C597.087 396.011 585.072 370.495 579.647 363.168Z" fill="white" fill-opacity="0.31"></path>
<path fill-rule="evenodd" clip-rule="evenodd" d="M605.039 228.612C605.844 228.246 607.351 225.745 607.351 225.745C607.7 225.316 607.634 224.687 607.206 224.338C606.777 223.99 606.147 224.055 605.799 224.484L603.466 227.441C602.599 229.516 604.234 228.977 605.039 228.612Z" fill="#DBDBDB"></path>
<path d="M569.055 488.664L679.732 488.635L772.219 544.706L628.38 544.772L569.055 488.664Z" fill="#C4B6FF"></path>
<path d="M534.278 481.925C534.278 482.783 528.492 483.479 521.356 483.479C514.22 483.479 508.435 482.783 508.435 481.925C508.435 481.066 514.22 480.37 521.356 480.37C528.492 480.37 534.278 481.066 534.278 481.925Z" fill="black" fill-opacity="0.47"></path>
<path d="M509.639 458.08H532.064V462.719V465.154V471.805V474.457C532.064 477.97 529.215 480.819 525.702 480.819H516.664C510.472 480.819 509.639 475.799 509.639 469.606V458.08Z" fill="#7D55FF"></path>
<path fill-rule="evenodd" clip-rule="evenodd" d="M532.064 465.154V462.719C532.064 462.719 536.881 459.04 536.881 463.813C536.881 466.726 534.916 471.042 532.064 474.457V471.805C533.456 471.102 535.62 465.439 535.332 464.07C535.043 462.702 532.904 464.194 532.064 465.154Z" fill="#7D55FF"></path>
<path d="M571.201 463.915C534.904 462.984 503.725 443.75 492.673 434.249L499.071 374.334L529.319 425.523L580.508 453.444C587.954 452.514 616.573 467.793 629.952 475.549C623.747 480.59 607.964 489.393 594.469 484.274C580.973 479.155 573.334 468.568 571.201 463.915Z" fill="#D69962"></path>
<path d="M569.06 578.086L569.06 488.663L628.435 544.785V578.086H569.06Z" fill="#7D55FF"></path>
<path d="M569.06 578.086L569.06 488.663L628.435 544.785V578.086H569.06Z" fill="black" fill-opacity="0.22"></path>
<path d="M460.215 247.657C473.579 239.035 501.338 215.883 505.247 204.633L517.794 225.894C520.349 232.259 526.947 249.181 521.854 250.364C516.761 251.549 507.29 277.091 506.323 282.816L489.97 269.328C480.018 266.199 446.851 256.279 460.215 247.657Z" fill="#FFB877"></path>
<path d="M505.685 232.244C505.685 232.244 517.921 245.908 521.494 250.042C516.847 254.163 513.241 263.32 511.173 268.311C511.173 268.311 505.992 242.033 505.685 232.244Z" fill="#606060"></path>
<path d="M531.225 165.995L580.874 210.003C580.874 210.003 556.101 243.607 536.671 267.981C503.85 258.014 498.181 201.404 498.181 201.404L531.225 165.995Z" fill="#FFB877"></path>
<path d="M564.196 231.212C560.747 238.179 564.845 245.09 562.9 246.217C560.954 247.343 555.047 245.568 555.047 245.568" stroke="#606060" stroke-width="2.16857" stroke-linecap="round"></path>
<path d="M542.392 245.473C541.609 247.22 541.323 252.206 546.078 255.878" stroke="#606060" stroke-width="2.16857"></path>
<path d="M555.34 203.057L543.328 191.725C538.458 192.747 534.415 202.445 532.612 209.657L522.195 203.952C525.353 197.189 523.932 187.534 515.508 189.515C507.086 191.496 511.62 210.181 508.577 218.846C505.534 227.51 495.865 223.623 491.75 221.807C487.635 219.99 483.64 216.547 481.817 206.983C477.805 185.934 500.848 169.717 509.24 153.782C515.954 141.035 529.553 149.544 527.893 156.629C531.193 142.5 552.839 119.477 567.302 124.859C572.332 127.496 581.033 134.771 579.846 143.532C596.617 142.898 611.189 147.65 612.064 167.226C612.178 169.779 611.508 172.604 610.282 175.566C612.553 176.779 614.176 178.83 614.8 181.988C617.633 196.311 589.336 209.881 577.075 214.781C577.075 214.781 566.783 212.89 555.34 203.057Z" fill="#464646"></path>
<path d="M423.374 456.25C423.374 456.25 423.374 456.249 457.769 456.249C492.164 456.249 492.164 456.25 492.164 456.25V587.513H423.374V456.25Z" fill="#C4B6FF"></path>
<path d="M399.478 438.366C399.478 438.366 450.004 462.362 482.693 467.748C486.4 468.359 473.827 521.543 473.827 521.543L431.808 518.386C418.302 514.847 396.752 492.062 397.46 478.117L399.478 438.366Z" fill="#C4B6FF"></path>
<path fill-rule="evenodd" clip-rule="evenodd" d="M412.894 444.4C420.713 447.791 431.226 452.153 442.449 456.249L454.109 456.249C444.241 509.906 447.599 552.151 450.336 586.58C450.361 586.892 450.386 587.203 450.41 587.514H423.374V514.431C410.863 506.442 396.888 489.391 397.46 478.117L399.211 443.616L412.894 444.4Z" fill="#243D4A" fill-opacity="0.5"></path>
<path d="M471.289 233.77L510.665 273.706L507.796 293.48L498.489 466.824H390.295C400.184 412.145 395.118 311.341 418.837 279.594C442.476 247.954 457.405 242.148 471.289 233.77Z" fill="#464646"></path>
<path fill-rule="evenodd" clip-rule="evenodd" d="M487.158 249.864L471.289 233.77C469.455 234.877 467.603 235.939 465.715 237.021C463.042 238.553 460.297 240.127 457.43 241.927C451.561 245.924 445.355 250.724 439.562 255.791C433.411 261.613 426.593 269.213 418.837 279.594C417.821 280.954 416.858 282.44 415.944 284.045C411.102 294.371 407.678 305.47 405.133 317.748C400.768 340.829 398.889 369.475 397.065 397.284C395.39 422.824 393.761 447.658 390.295 466.824L437.862 466.824C406.254 395.108 459.678 331.57 474.853 347.913C475.13 341.657 476.741 336.022 478.412 330.179C481.798 318.339 484.328 273.57 484.328 273.57C484.328 273.57 479.498 255.49 487.158 249.864Z" fill="black" fill-opacity="0.2"></path>
<path d="M679.932 6H832V126.586L679.932 53.5132V6Z" fill="#F4F4F4"></path>
<rect x="186.131" y="157.891" width="448.109" height="19.3907" transform="rotate(90 186.131 157.891)" fill="#FEFEFE"></rect>
<rect x="32" y="163.389" width="135.644" height="440.708" fill="#D5C7A6"></rect>
<rect x="32" y="177.281" width="104.693" height="376.537" fill="#E3D6B8"></rect>
<path fill-rule="evenodd" clip-rule="evenodd" d="M58.0337 259.034H29.6287V262.47H12.5449V276.331C12.5449 283.23 17.7252 288.918 24.4079 289.719V324.084H16.8053C15.7566 324.084 14.9065 324.935 14.9065 325.983V326.97H37.1521H51.0783H73.3238H89.7531H111.999L129.962 326.97V325.931C129.962 324.826 129.067 323.931 127.962 323.931H119.954V287.735C126.993 286.891 132.449 280.9 132.449 273.634V259.034H104.044V262.47H98.0178V259.034H69.6128V262.47H58.0337V259.034ZM110.641 285.63C108.536 287.84 105.688 289.337 102.497 289.719V324.084H107.761C107.998 323.985 108.259 323.931 108.532 323.931H116.539V287.735C114.388 287.477 112.385 286.739 110.641 285.63ZM74.1001 323.931C73.5351 323.931 73.0248 324.165 72.661 324.542C72.3289 324.257 71.897 324.084 71.425 324.084H63.8223V289.719C67.9468 289.225 71.4989 286.869 73.6141 283.516C75.8231 285.795 78.7895 287.337 82.1076 287.735V323.931H74.1001ZM99.2546 324.084H94.3008C94.0637 323.985 93.8035 323.931 93.5305 323.931H85.523V287.735C87.5944 287.487 89.5289 286.792 91.2275 285.751C93.3208 287.895 96.1227 289.344 99.2546 289.719V324.084ZM52.0558 285.214C50.1725 286.554 47.9484 287.446 45.5388 287.735V323.931H53.5464C53.8194 323.931 54.0796 323.985 54.3167 324.084H60.5797V289.719C57.1929 289.313 54.192 287.652 52.0558 285.214ZM33.3457 324.084C33.5828 323.985 33.843 323.931 34.116 323.931H42.1235V287.735C39.8619 287.464 37.7638 286.661 35.9575 285.456C33.8372 287.762 30.9242 289.327 27.6506 289.719V324.084H33.3457Z" fill="#63573F" fill-opacity="0.1"></path>
<path d="M32 494.982L136.16 494.982L168.351 505.323L32 506.31V494.982Z" fill="#B7AB8D"></path>
<rect x="31.6816" y="504.891" width="154.45" height="19.3907" fill="#FEFEFE"></rect>
<path fill-rule="evenodd" clip-rule="evenodd" d="M95.3042 244.414C112.158 244.414 125.82 230.751 125.82 213.897C125.82 197.044 112.158 183.381 95.3042 183.381C78.4506 183.381 64.7881 197.044 64.7881 213.897C64.7881 230.751 78.4506 244.414 95.3042 244.414Z" fill="#63573F" fill-opacity="0.1"></path>
<circle cx="100.109" cy="213.897" r="30.5161" fill="#FBF7ED"></circle>
<circle cx="100.109" cy="213.897" r="20.6843" fill="#E7DFCD"></circle>
<path fill-rule="evenodd" clip-rule="evenodd" d="M32 244.4V183.395C48.4264 183.883 61.5927 197.353 61.5927 213.897C61.5927 230.442 48.4264 243.912 32 244.4Z" fill="#FBF7ED"></path>
<path fill-rule="evenodd" clip-rule="evenodd" d="M32 234.561V193.233C42.9951 193.716 51.7608 202.783 51.7608 213.897C51.7608 225.011 42.9951 234.078 32 234.561Z" fill="#E7DFCD"></path>
<ellipse cx="87.88" cy="500.485" rx="51.3751" ry="2.67542" fill="#4A3D24" fill-opacity="0.14"></ellipse>
<path d="M32 321.369L136.16 321.369L168.351 331.709L32 332.696V321.369Z" fill="#B7AB8D"></path>
<path d="M65.8213 269.786H89.7308V282.075C89.7308 288.678 84.3785 294.03 77.776 294.03C71.1736 294.03 65.8213 288.678 65.8213 282.075V269.786Z" fill="#E6E6E6"></path>
<rect x="76.3389" y="291.386" width="2.87483" height="33.5008" fill="#E6E6E6"></rect>
<path d="M67.915 326.31C67.915 325.262 68.7652 324.412 69.8139 324.412H85.7384C86.7871 324.412 87.6372 325.262 87.6372 326.31V326.97H67.915V326.31Z" fill="#E6E6E6"></path>
<path d="M33.752 269.786H57.6615V282.075C57.6615 288.678 52.3091 294.03 45.7067 294.03C39.1043 294.03 33.752 288.678 33.752 282.075V269.786Z" fill="#E6E6E6"></path>
<rect x="44.2695" y="291.386" width="2.87483" height="33.5008" fill="#E6E6E6"></rect>
<path d="M35.8457 326.31C35.8457 325.262 36.6959 324.412 37.7446 324.412H53.669C54.7177 324.412 55.5679 325.262 55.5679 326.31V326.97H35.8457V326.31Z" fill="#E6E6E6"></path>
<path d="M100.109 269.786H124.019V282.075C124.019 288.678 118.667 294.03 112.064 294.03C105.462 294.03 100.109 288.678 100.109 282.075V269.786Z" fill="#E6E6E6"></path>
<rect x="110.627" y="291.386" width="2.87483" height="33.5008" fill="#E6E6E6"></rect>
<path d="M102.203 326.31C102.203 325.262 103.053 324.412 104.102 324.412H120.026C121.075 324.412 121.925 325.262 121.925 326.31V326.97H102.203V326.31Z" fill="#E6E6E6"></path>
<path fill-rule="evenodd" clip-rule="evenodd" d="M48.8984 266.74H74.0814V279.684C74.0814 286.126 69.2442 291.437 63.0039 292.185V324.275H69.8763C70.9809 324.275 71.8763 325.171 71.8763 326.275V326.97H51.1036V326.275C51.1036 325.171 51.9991 324.275 53.1036 324.275H59.976V292.185C53.7357 291.437 48.8984 286.126 48.8984 279.684V266.74Z" fill="#F7FAFF" fill-opacity="0.81"></path>
<path fill-rule="evenodd" clip-rule="evenodd" d="M84.3467 266.74H109.53V279.684C109.53 286.126 104.692 291.437 98.4521 292.185V324.275H105.325C106.429 324.275 107.325 325.171 107.325 326.275V326.97H86.5519V326.275C86.5519 325.171 87.4473 324.275 88.5519 324.275H95.4242V292.185C89.1839 291.437 84.3467 286.126 84.3467 279.684V266.74Z" fill="#F7FAFF" fill-opacity="0.81"></path>
<path fill-rule="evenodd" clip-rule="evenodd" d="M114.873 266.74H140.056V279.684C140.056 286.126 135.219 291.437 128.979 292.185V324.275H135.851C136.955 324.275 137.851 325.171 137.851 326.275V326.97H117.078V326.275C117.078 325.171 117.974 324.275 119.078 324.275H125.951V292.185C119.71 291.437 114.873 286.126 114.873 279.684V266.74Z" fill="#F7FAFF" fill-opacity="0.81"></path>
<rect x="31.6816" y="331.391" width="154.45" height="19.3907" fill="#FEFEFE"></rect>
<path fill-rule="evenodd" clip-rule="evenodd" d="M120.181 407.76C120.181 407.759 120.181 407.759 120.181 407.758C120.181 407.757 120.181 407.756 120.181 407.756V407.534H120.107C118.666 405.374 96.5173 403.659 69.4052 403.659C41.3625 403.659 18.6294 405.494 18.6294 407.758C18.6294 407.786 18.6329 407.814 18.6398 407.841L18.6294 407.842V410.251C18.6294 410.998 21.1023 411.698 25.4228 412.301C21.1022 412.904 18.6294 413.604 18.6294 414.35C18.6294 414.378 18.6328 414.406 18.6397 414.434L18.6294 414.434V416.844C18.6294 417.525 20.6843 418.166 24.3206 418.731C20.6843 419.296 18.6294 419.938 18.6294 420.619C18.6294 420.647 18.6328 420.675 18.6397 420.702L18.6294 420.702V423.112C18.6294 423.793 20.6849 424.435 24.3224 425C20.6849 425.565 18.6294 426.207 18.6294 426.888C18.6294 426.915 18.6328 426.943 18.6397 426.971L18.6294 426.971V429.381C18.6294 430.062 20.6843 430.704 24.3206 431.268C20.6843 431.833 18.6294 432.475 18.6294 433.156C18.6294 433.184 18.6329 433.212 18.6399 433.24L18.6294 433.24V435.65C18.6294 436.331 20.6843 436.972 24.3206 437.537C20.6843 438.102 18.6294 438.744 18.6294 439.425C18.6294 439.453 18.6328 439.48 18.6397 439.508L18.6294 439.508V441.918C18.6294 442.31 19.3111 442.689 20.584 443.048C11.1723 443.762 5.49805 444.685 5.49805 445.693C5.49805 445.721 5.5024 445.749 5.51108 445.777L5.49805 445.777V448.187C5.49805 448.868 8.08439 449.509 12.6611 450.074C8.08439 450.639 5.49805 451.281 5.49805 451.962C5.49805 451.99 5.5024 452.018 5.51108 452.045L5.49805 452.045V454.455C5.49805 455.136 8.08524 455.778 12.6634 456.343C8.08524 456.908 5.49805 457.55 5.49805 458.231C5.49805 458.259 5.5024 458.286 5.51108 458.314L5.49805 458.314V460.724C5.49805 461.405 8.08439 462.047 12.6611 462.611C8.08439 463.176 5.49805 463.818 5.49805 464.499C5.49805 464.527 5.50246 464.555 5.51125 464.583L5.49805 464.583V466.993C5.49805 467.674 8.08439 468.315 12.6611 468.88C8.08439 469.445 5.49805 470.087 5.49805 470.768C5.49805 470.796 5.5024 470.823 5.51108 470.851L5.49805 470.851V473.261C5.49805 473.942 8.08441 474.584 12.6611 475.149C8.08445 475.713 5.49812 476.355 5.49812 477.036C5.49812 477.064 5.50253 477.092 5.51132 477.12L5.49812 477.12V479.53C5.49812 480.211 8.08869 480.854 12.6724 481.419C8.08869 481.984 5.49812 482.626 5.49812 483.308C5.49812 483.335 5.50247 483.363 5.51115 483.391L5.49812 483.391V485.801C5.49812 486.334 7.08348 486.843 9.96819 487.31C7.08348 487.777 5.49812 488.286 5.49812 488.819C5.49812 488.847 5.50247 488.875 5.51115 488.903L5.49812 488.903V491.313C5.49812 492.57 14.3231 493.695 28.2166 494.447C31.159 497.088 42.5865 498.782 45.8751 498.782H92.9353C96.2933 498.782 108.748 497.944 110.87 494.432C124.604 493.68 133.312 492.562 133.312 491.313V488.819V488.595H133.219C132.839 488.144 131.32 487.711 128.842 487.31C131.727 486.843 133.312 486.334 133.312 485.801V483.308V483.084H133.219C132.717 482.486 130.216 481.922 126.138 481.419C130.722 480.854 133.312 480.211 133.312 479.53V477.036V476.813H133.219C132.719 476.215 130.222 475.651 126.149 475.149C130.726 474.584 133.312 473.942 133.312 473.261V470.768V470.544H133.218C132.717 469.946 130.221 469.383 126.149 468.88C130.726 468.315 133.312 467.674 133.312 466.993V464.499V464.275H133.219C132.718 463.678 130.222 463.114 126.149 462.611C130.726 462.047 133.312 461.405 133.312 460.724V458.231V458.007H133.218C132.717 457.409 130.22 456.846 126.147 456.343C130.725 455.778 133.312 455.136 133.312 454.455V451.962V451.738H133.218C132.717 451.14 130.221 450.577 126.149 450.074C130.726 449.509 133.312 448.868 133.312 448.187V445.693V445.47H133.218C132.446 444.549 126.937 443.709 118.226 443.048C119.499 442.689 120.181 442.31 120.181 441.918V439.427L120.181 439.425L120.181 439.422V439.201H120.106C119.708 438.603 117.725 438.04 114.49 437.537C118.126 436.972 120.181 436.331 120.181 435.65V433.158L120.181 433.156L120.181 433.154V432.932H120.107C119.709 432.335 117.726 431.771 114.49 431.268C118.126 430.704 120.181 430.062 120.181 429.381V426.89L120.181 426.888L120.181 426.885V426.664H120.106C119.708 426.066 117.724 425.503 114.488 425C118.125 424.435 120.181 423.793 120.181 423.112V420.621L120.181 420.619L120.181 420.616V420.395H120.106C119.708 419.797 117.725 419.234 114.49 418.731C118.126 418.166 120.181 417.525 120.181 416.844V414.353L120.181 414.35L120.181 414.348V414.127H120.106C119.665 413.464 117.273 412.843 113.388 412.301C117.708 411.698 120.181 410.998 120.181 410.251V407.76Z" fill="#63573F" fill-opacity="0.1"></path>
<path d="M50.1055 493.654H124.694C124.694 495.122 124.694 495.857 124.559 496.465C123.757 500.075 111.519 500.911 108.354 500.911H66.445C63.2802 500.911 51.6523 499.149 50.2406 496.465C50.1055 495.857 50.1055 495.122 50.1055 493.654Z" fill="#BEBEBE"></path>
<path d="M144.312 494.258C144.312 496.274 118.832 497.909 87.3999 497.909C55.9679 497.909 30.4873 496.274 30.4873 494.258C30.4873 493.444 34.6503 492.691 41.6866 492.084C52.0582 491.188 68.6727 490.608 87.3999 490.608C104.498 490.608 119.835 491.092 130.267 491.857C139.013 492.499 144.312 493.339 144.312 494.258Z" fill="#DBDBDB"></path>
<path d="M30.4873 494.258C30.4873 493.444 34.6503 492.691 41.6866 492.084L30.4873 492.112V494.258Z" fill="#DBDBDB"></path>
<path d="M130.267 491.857C139.013 492.499 144.312 493.339 144.312 494.258V491.838H137.678L130.267 491.857Z" fill="#DBDBDB"></path>
<ellipse cx="87.3999" cy="492.038" rx="56.9126" ry="3.65026" fill="white"></ellipse>
<path d="M144.312 489.35C144.312 491.366 118.832 493 87.3999 493C55.9679 493 30.4873 491.366 30.4873 489.35C30.4873 488.535 34.6503 487.783 41.6866 487.175C52.0582 486.28 68.6727 485.7 87.3999 485.7C104.498 485.7 119.835 486.183 130.267 486.949C139.013 487.591 144.312 488.431 144.312 489.35Z" fill="#DBDBDB"></path>
<path d="M30.4873 489.35C30.4873 488.535 34.6503 487.783 41.6866 487.175L30.4873 487.204V489.35Z" fill="#DBDBDB"></path>
<path d="M130.267 486.949C139.013 487.591 144.312 488.431 144.312 489.35V486.93H137.678L130.267 486.949Z" fill="#DBDBDB"></path>
<ellipse cx="87.3999" cy="487.129" rx="56.9126" ry="3.65026" fill="white"></ellipse>
<path d="M144.312 483.765C144.312 485.781 118.832 487.416 87.3999 487.416C55.9679 487.416 30.4873 485.781 30.4873 483.765C30.4873 482.95 34.6503 482.198 41.6866 481.59C52.0582 480.695 68.6727 480.115 87.3999 480.115C104.498 480.115 119.835 480.599 130.267 481.364C139.013 482.006 144.312 482.846 144.312 483.765Z" fill="#DBDBDB"></path>
<path d="M30.4873 483.765C30.4873 482.95 34.6503 482.198 41.6866 481.59L30.4873 481.619V483.765Z" fill="#DBDBDB"></path>
<path d="M130.267 481.364C139.013 482.006 144.312 482.846 144.312 483.765V481.345H137.678L130.267 481.364Z" fill="#DBDBDB"></path>
<ellipse cx="87.3999" cy="481.544" rx="56.9126" ry="3.65026" fill="white"></ellipse>
<path d="M144.312 478.183C144.312 480.199 118.832 481.833 87.3999 481.833C55.9679 481.833 30.4873 480.199 30.4873 478.183C30.4873 477.368 34.6503 476.615 41.6866 476.008C52.0582 475.113 68.6727 474.532 87.3999 474.532C104.498 474.532 119.835 475.016 130.267 475.782C139.013 476.423 144.312 477.263 144.312 478.183Z" fill="#DBDBDB"></path>
<path d="M30.4873 478.183C30.4873 477.368 34.6503 476.615 41.6866 476.008L30.4873 476.037V478.183Z" fill="#DBDBDB"></path>
<path d="M130.267 475.782C139.013 476.423 144.312 477.263 144.312 478.183V475.763H137.678L130.267 475.782Z" fill="#DBDBDB"></path>
<ellipse cx="87.3999" cy="475.962" rx="56.9126" ry="3.65026" fill="white"></ellipse>
<path d="M144.312 472.6C144.312 474.616 118.832 476.251 87.3999 476.251C55.9679 476.251 30.4873 474.616 30.4873 472.6C30.4873 471.785 34.6503 471.033 41.6866 470.425C52.0582 469.53 68.6727 468.95 87.3999 468.95C104.498 468.95 119.835 469.434 130.267 470.199C139.013 470.841 144.312 471.681 144.312 472.6Z" fill="#DBDBDB"></path>
<path d="M30.4873 472.6C30.4873 471.785 34.6503 471.033 41.6866 470.425L30.4873 470.454V472.6Z" fill="#DBDBDB"></path>
<path d="M130.267 470.199C139.013 470.841 144.312 471.681 144.312 472.6V470.18H137.678L130.267 470.199Z" fill="#DBDBDB"></path>
<ellipse cx="87.3999" cy="470.379" rx="56.9126" ry="3.65026" fill="white"></ellipse>
<path d="M144.312 467.018C144.312 469.034 118.832 470.668 87.3999 470.668C55.9679 470.668 30.4873 469.034 30.4873 467.018C30.4873 466.203 34.6503 465.45 41.6866 464.843C52.0582 463.948 68.6727 463.367 87.3999 463.367C104.498 463.367 119.835 463.851 130.267 464.617C139.013 465.258 144.312 466.098 144.312 467.018Z" fill="#DBDBDB"></path>
<path d="M30.4873 467.018C30.4873 466.203 34.6503 465.45 41.6866 464.843L30.4873 464.872V467.018Z" fill="#DBDBDB"></path>
<path d="M130.267 464.617C139.013 465.258 144.312 466.098 144.312 467.018V464.598H137.678L130.267 464.617Z" fill="#DBDBDB"></path>
<ellipse cx="87.3999" cy="464.797" rx="56.9126" ry="3.65026" fill="white"></ellipse>
<path d="M144.312 461.435C144.312 463.451 118.832 465.085 87.3999 465.085C55.9679 465.085 30.4873 463.451 30.4873 461.435C30.4873 460.62 34.6503 459.868 41.6866 459.26C52.0582 458.365 68.6727 457.785 87.3999 457.785C104.498 457.785 119.835 458.269 130.267 459.034C139.013 459.676 144.312 460.516 144.312 461.435Z" fill="#DBDBDB"></path>
<path d="M30.4873 461.435C30.4873 460.62 34.6503 459.868 41.6866 459.26L30.4873 459.289V461.435Z" fill="#DBDBDB"></path>
<path d="M130.267 459.034C139.013 459.676 144.312 460.516 144.312 461.435V459.015H137.678L130.267 459.034Z" fill="#DBDBDB"></path>
<ellipse cx="87.3999" cy="459.214" rx="56.9126" ry="3.65026" fill="white"></ellipse>
<path d="M144.312 455.853C144.312 457.869 118.832 459.503 87.3999 459.503C55.9679 459.503 30.4873 457.869 30.4873 455.853C30.4873 455.038 34.6503 454.285 41.6866 453.678C52.0582 452.783 68.6727 452.202 87.3999 452.202C104.498 452.202 119.835 452.686 130.267 453.452C139.013 454.093 144.312 454.933 144.312 455.853Z" fill="#DBDBDB"></path>
<path d="M30.4873 455.853C30.4873 455.038 34.6503 454.285 41.6866 453.678L30.4873 453.707V455.853Z" fill="#DBDBDB"></path>
<path d="M130.267 453.452C139.013 454.093 144.312 454.933 144.312 455.853V453.433H137.678L130.267 453.452Z" fill="#DBDBDB"></path>
<ellipse cx="87.3999" cy="453.632" rx="56.9126" ry="3.65026" fill="white"></ellipse>
<path d="M132.619 450.27C132.619 452.286 112.374 453.92 87.4001 453.92C62.4267 453.92 42.1816 452.286 42.1816 450.27C42.1816 449.455 45.4892 448.703 51.0797 448.095C59.3202 447.2 72.5209 446.62 87.4001 446.62C100.985 446.62 113.17 447.104 121.459 447.869C128.408 448.511 132.619 449.351 132.619 450.27Z" fill="#C4B6FF"></path>
<path d="M42.1816 450.27C42.1816 449.455 45.4892 448.703 51.0797 448.095L42.1816 448.124V450.27Z" fill="#C4B6FF"></path>
<path d="M121.459 447.869C128.408 448.511 132.619 449.351 132.619 450.27V447.85H127.348L121.459 447.869Z" fill="#C4B6FF"></path>
<ellipse cx="87.4001" cy="448.049" rx="45.2185" ry="3.65026" fill="#FFE458"></ellipse>
<path d="M132.619 444.688C132.619 446.704 112.374 448.338 87.4001 448.338C62.4267 448.338 42.1816 446.704 42.1816 444.688C42.1816 443.873 45.4892 443.12 51.0797 442.513C59.3202 441.618 72.5209 441.037 87.4001 441.037C100.985 441.037 113.17 441.521 121.459 442.287C128.408 442.928 132.619 443.768 132.619 444.688Z" fill="#C4B6FF"></path>
<path d="M42.1816 444.688C42.1816 443.873 45.4892 443.12 51.0797 442.513L42.1816 442.542V444.688Z" fill="#C4B6FF"></path>
<path d="M121.459 442.287C128.408 442.928 132.619 443.768 132.619 444.688V442.268H127.348L121.459 442.287Z" fill="#C4B6FF"></path>
<ellipse cx="87.4001" cy="442.467" rx="45.2185" ry="3.65026" fill="#FFE458"></ellipse>
<path d="M132.619 439.105C132.619 441.121 112.374 442.755 87.4001 442.755C62.4267 442.755 42.1816 441.121 42.1816 439.105C42.1816 438.29 45.4892 437.538 51.0797 436.93C59.3202 436.035 72.5209 435.455 87.4001 435.455C100.985 435.455 113.17 435.938 121.459 436.704C128.408 437.346 132.619 438.186 132.619 439.105Z" fill="#C4B6FF"></path>
<path d="M42.1816 439.105C42.1816 438.29 45.4892 437.538 51.0797 436.93L42.1816 436.959V439.105Z" fill="#C4B6FF"></path>
<path d="M121.459 436.704C128.408 437.346 132.619 438.186 132.619 439.105V436.685H127.348L121.459 436.704Z" fill="#C4B6FF"></path>
<ellipse cx="87.4001" cy="436.884" rx="45.2185" ry="3.65026" fill="#FFE458"></ellipse>
<path d="M132.619 433.523C132.619 435.539 112.374 437.173 87.4001 437.173C62.4267 437.173 42.1816 435.539 42.1816 433.523C42.1816 432.708 45.4892 431.955 51.0797 431.348C59.3202 430.453 72.5209 429.872 87.4001 429.872C100.985 429.872 113.17 430.356 121.459 431.122C128.408 431.763 132.619 432.603 132.619 433.523Z" fill="#C4B6FF"></path>
<path d="M42.1816 433.523C42.1816 432.708 45.4892 431.955 51.0797 431.348L42.1816 431.376V433.523Z" fill="#C4B6FF"></path>
<path d="M121.459 431.122C128.408 431.763 132.619 432.603 132.619 433.523V431.103H127.348L121.459 431.122Z" fill="#C4B6FF"></path>
<ellipse cx="87.4001" cy="431.302" rx="45.2185" ry="3.65026" fill="#FFE458"></ellipse>
<path d="M132.619 427.94C132.619 429.956 112.374 431.59 87.4001 431.59C62.4267 431.59 42.1816 429.956 42.1816 427.94C42.1816 427.125 45.4892 426.373 51.0797 425.765C59.3202 424.87 72.5209 424.29 87.4001 424.29C100.985 424.29 113.17 424.773 121.459 425.539C128.408 426.181 132.619 427.021 132.619 427.94Z" fill="#C4B6FF"></path>
<path d="M42.1816 427.94C42.1816 427.125 45.4892 426.373 51.0797 425.765L42.1816 425.794V427.94Z" fill="#C4B6FF"></path>
<path d="M121.459 425.539C128.408 426.181 132.619 427.021 132.619 427.94V425.52H127.348L121.459 425.539Z" fill="#C4B6FF"></path>
<ellipse cx="87.4001" cy="425.719" rx="45.2185" ry="3.65026" fill="#FFE458"></ellipse>
<path d="M132.619 422.069C132.619 424.085 112.374 425.72 87.4001 425.72C62.4267 425.72 42.1816 424.085 42.1816 422.069C42.1816 421.254 45.4892 420.502 51.0797 419.895C59.3202 418.999 72.5209 418.419 87.4001 418.419C100.985 418.419 113.17 418.903 121.459 419.668C128.408 420.31 132.619 421.15 132.619 422.069Z" fill="#C4B6FF"></path>
<path d="M42.1816 422.069C42.1816 421.254 45.4892 420.502 51.0797 419.895L42.1816 419.923V422.069Z" fill="#C4B6FF"></path>
<path d="M121.459 419.668C128.408 420.31 132.619 421.15 132.619 422.069V419.649H127.348L121.459 419.668Z" fill="#C4B6FF"></path>
<ellipse cx="87.4001" cy="419.849" rx="45.2185" ry="3.65026" fill="#FFE458"></ellipse>
<rect x="31.6816" y="157.891" width="154.45" height="19.3907" fill="#FEFEFE"></rect>
<path d="M330.864 272.754C320.362 264.639 294.728 266.323 283.224 268.179L281.832 274.047C286.44 280.313 295.736 292.904 296.054 293.143C296.373 293.382 319.394 284.888 330.864 280.611V272.754Z" fill="#A8A8A8"></path>
<path d="M270.216 283.399C289.824 279.821 288.643 264.375 285.602 257.1C296.908 268.693 318.341 263.004 327.644 258.71C322.921 268.729 332.713 281.133 338.199 286.082C335.158 289.66 325.211 297.747 309.754 301.468C294.296 305.189 276.955 290.972 270.216 283.399Z" fill="#FFB877"></path>
<path d="M400.963 438.794C406.438 434.236 399.828 398.411 397.558 382.333L361.809 392.547C363.89 402.856 367.014 424.478 364.647 429.431C350.924 458.138 384.581 452.434 400.963 438.794Z" fill="#FFB877"></path>
<rect x="226.212" y="483.406" width="127.735" height="99.9914" fill="#C4B6FF"></rect>
<path d="M222.451 291.57C240.724 284.51 257.335 274.543 277.684 274.543C279.76 281.464 287.983 295.307 304.262 295.307C320.541 295.307 331.532 285.34 334.992 280.357C359.909 285.008 375.552 296.692 380.258 301.952C394.544 318.895 401.161 361.475 404.76 383.762L357.238 395.56L352.9 371.719C350.574 387.998 361.585 472.296 365.46 500.259L215.892 502.898C222.204 477.317 217.271 403.602 210.489 368.303L201.761 383.762C200.1 368.148 181.874 352.862 171.215 343.31C180.339 323.078 202.933 295.307 222.451 291.57Z" fill="#FCFCFC"></path>
<path fill-rule="evenodd" clip-rule="evenodd" d="M327.709 271.062C326.405 265.73 325.334 263.611 327.644 258.71C318.341 263.004 296.908 268.693 285.602 257.1C287.07 260.613 287.417 261.777 287.233 267.665C292.695 272.551 298.768 277.924 301.826 280.625C303.112 281.761 304.761 282.39 306.476 282.405C307.654 282.415 308.811 282.136 309.848 281.576C313.152 279.79 321.047 275.434 327.709 271.062Z" fill="#606060"></path>
<path fill-rule="evenodd" clip-rule="evenodd" d="M268.425 196.299C268.239 211.689 277.343 248.837 278.485 254.504C279.39 258.999 296.7 272.37 302.644 276.849C303.938 277.823 305.5 278.337 307.12 278.351C308.408 278.362 309.67 278.055 310.801 277.437C316.896 274.104 337.214 262.729 338.829 258.31C340.813 252.881 352.546 220.67 354.686 205.429L338.829 200.205C333.447 207.973 320.359 206.081 313.364 203.848L313.39 203.504C313.172 203.548 312.945 203.591 312.711 203.633C312.485 203.556 312.268 203.479 312.058 203.403L312.032 203.747C304.78 204.898 291.556 204.791 287.41 196.299L268.425 196.299Z" fill="#FFB877"></path>
<path d="M138.239 411.317C129.384 407.662 169.083 357.373 180.9 341.807L209.387 367.168L180.9 406.272C188.505 422.133 173.357 425.812 138.239 411.317Z" fill="#FFB877"></path>
<path d="M267.138 409.626C261.706 410.879 250.12 415.223 248.504 419.349L263.452 424.778C264.176 422.92 272.57 408.372 267.138 409.626Z" fill="#D69962"></path>
<path d="M266.962 418.185C272.24 416.389 285.368 413.604 287.923 416.636L278.076 429.125C276.482 427.927 261.685 419.981 266.962 418.185Z" fill="#D69962"></path>
<path d="M278.12 447.721C283.302 448.399 294.506 451.404 296.386 455.109L282.929 461.527C282.086 459.859 272.938 447.043 278.12 447.721Z" fill="#D69962"></path>
<path d="M269.538 529.761C267.063 538.481 288.667 549.31 289.755 549.715L296.492 547.164C297.922 545.805 301.469 542.617 304.212 540.738C307.641 538.389 304.85 534.754 301.047 532.109C297.244 529.464 298.16 525.989 299.875 523.122C301.59 520.255 299.356 517.018 296.492 516.235C293.627 515.452 295.967 511.88 297.31 508.337C298.652 504.794 291.878 503.858 287.817 504.229C283.756 504.6 282.829 498.764 279.016 496.707C275.202 494.65 273.851 499.714 274.765 501.819C275.679 503.924 273.224 506.357 269.538 508.337C265.853 510.316 268.851 517.576 272.541 521.042C276.582 524.838 270.731 525.56 269.538 529.761Z" fill="#D1D95E"></path>
<rect x="263.265" y="205.513" width="7.03098" height="27.7181" rx="3.51549" transform="rotate(-8.62412 263.265 205.513)" fill="#FFB877"></rect>
<rect width="7.03098" height="27.7181" rx="3.51549" transform="matrix(-0.986096 -0.166178 -0.166178 0.986096 357.834 211.867)" fill="#FFB877"></rect>
<path d="M277.797 457.011C272.576 456.781 260.03 457.724 258.528 461.124L270.67 469.775C271.79 468.278 283.019 457.24 277.797 457.011Z" fill="#D69962"></path>
<path d="M347.245 131.872C360.623 148.003 347.112 158.597 344.189 160.845C333.552 169.028 306.19 170.892 297.768 155.633C286.058 139.538 298.502 143.116 298.315 130.702C298.167 120.92 336.283 118.654 347.245 131.872Z" fill="#464646"></path>
<path d="M285.78 223.804L282.462 212.158L280.167 218.879C280.167 220.176 279.459 223.265 276.629 225.246C273.799 227.227 272.385 214.752 272.031 208.267C271.088 204.258 261.276 193.991 260.993 187.765C260.64 179.983 268.892 173.977 276.629 164.08C284.765 153.674 293.823 149.672 305.85 157.808C317.877 165.944 319.432 155.56 334.642 153.791C349.853 152.023 354.656 166.951 361.88 182.024C366.078 190.783 361.88 204.022 361.88 212.158C361.88 218.667 352.729 225.718 347.658 225.246V212.158L344.584 225.246C324.642 231.865 307.361 230.299 285.78 223.804Z" fill="#464646"></path>
<path d="M263.644 205.063C260.553 203.453 260.304 189.973 261.267 187.062C263.164 186.329 268.527 192.075 269.199 191.909C270.038 191.701 275.544 199.149 275.377 200.477C275.211 201.805 275.72 213.063 276.462 214.463C277.205 215.863 274.797 218.934 271.991 213.194C269.185 207.454 267.507 207.077 263.644 205.063Z" fill="#464646"></path>
<path d="M357.659 213.143C361.111 210.837 357.659 205.071 355.501 202.476C352.836 202.22 347.278 201.708 346.364 201.708C345.222 201.708 340.526 210.26 341.161 211.509C341.796 212.758 350.044 207.67 349.537 209.207C349.029 210.744 347.76 229.286 349.537 223.04C351.313 216.794 353.344 216.025 357.659 213.143Z" fill="#464646"></path>
<rect x="261.529" y="396.332" width="14.2243" height="12.0383" rx="3.34657" transform="rotate(-8.64137 261.529 396.332)" fill="#606060"></rect>
<rect x="275.664" y="499.232" width="17.1948" height="6.79096" rx="2.23105" transform="rotate(-8.64137 275.664 499.232)" fill="#606060"></rect>
<path d="M257.177 406.494C256.832 404.224 258.074 402.152 259.951 401.867L277.886 399.141C279.763 398.856 281.564 400.465 281.909 402.735L287.239 437.808C287.396 438.838 287.227 439.879 286.766 440.726L283.736 446.288C282.78 448.042 283.147 450.459 284.581 451.851L289.127 456.262C289.819 456.933 290.289 457.877 290.446 458.907L295.75 493.807C296.095 496.077 294.853 498.149 292.976 498.434L275.041 501.16C273.164 501.445 271.363 499.836 271.018 497.566L265.714 462.665C265.558 461.635 265.726 460.594 266.187 459.748L269.218 454.185C270.173 452.431 269.806 450.014 268.372 448.623L263.826 444.212C263.135 443.541 262.664 442.597 262.508 441.567L257.177 406.494Z" fill="#7D55FF"></path>
<path d="M306.436 231.863C306.773 240.32 299.632 245.372 301.067 247.355C302.501 249.338 309.16 250.194 309.16 250.194" stroke="#606060" stroke-width="1.96932" stroke-linecap="round"></path>
<path fill-rule="evenodd" clip-rule="evenodd" d="M306.02 265.01C310.468 265.01 313.549 260.508 314.548 258.483L312.654 258.238C312.536 259.432 309.155 262.956 306.02 262.956C302.885 262.956 299.693 259.432 299.575 258.238L297.634 258.483C298.247 260.248 301.572 265.01 306.02 265.01Z" fill="#606060"></path>
<path fill-rule="evenodd" clip-rule="evenodd" d="M305.688 287.372C293.997 286.392 282.867 267.834 282.867 267.834C282.867 267.834 278.762 273.745 273.823 275.185C272.826 275.476 277.657 288.263 286.315 292.626C303.226 306.417 337.868 294.268 338.853 281.297C334.42 278.998 331.137 272.595 331.137 272.595C331.137 272.595 317.14 288.332 305.688 287.372Z" fill="#D3D3D3"></path>
<path d="M301.408 445.381L309.631 445.916" stroke="#464646" stroke-width="0.997163" stroke-linecap="round"></path>
<path d="M301.676 441.269L309.898 441.805" stroke="#464646" stroke-width="0.997163" stroke-linecap="round"></path>
<path d="M253.974 469.57L260.783 474.21" stroke="#464646" stroke-width="0.997163" stroke-linecap="round"></path>
<path d="M256.294 466.165L263.103 470.805" stroke="#464646" stroke-width="0.997163" stroke-linecap="round"></path>
<path d="M332.44 378.579L340.663 379.114" stroke="#174B88" stroke-width="0.997163" stroke-linecap="round"></path>
<path d="M332.708 374.467L340.931 375.002" stroke="#174B88" stroke-width="0.997163" stroke-linecap="round"></path>
<path d="M386.278 364.739L390.327 369.074" stroke="#464646" stroke-width="0.997163" stroke-linecap="round"></path>
<path d="M388.445 362.714L392.494 367.049" stroke="#464646" stroke-width="0.997163" stroke-linecap="round"></path>
<path d="M221.252 307.076L229.475 307.611" stroke="#464646" stroke-width="0.997163" stroke-linecap="round"></path>
<path d="M221.52 302.965L229.742 303.5" stroke="#464646" stroke-width="0.997163" stroke-linecap="round"></path>
<path d="M345.725 479.4L353.947 479.935" stroke="#464646" stroke-width="0.997163" stroke-linecap="round"></path>
<path d="M345.992 475.289L354.215 475.824" stroke="#464646" stroke-width="0.997163" stroke-linecap="round"></path>
<path d="M350.9 306.023L359.123 306.558" stroke="#464646" stroke-width="0.997163" stroke-linecap="round"></path>
<path d="M351.168 301.912L359.391 302.447" stroke="#464646" stroke-width="0.997163" stroke-linecap="round"></path>
<path d="M223.138 382.554L228.781 388.558" stroke="#464646" stroke-width="0.997163" stroke-linecap="round"></path>
<path d="M226.14 379.731L231.783 385.735" stroke="#464646" stroke-width="0.997163" stroke-linecap="round"></path>
<path fill-rule="evenodd" clip-rule="evenodd" d="M260.176 426.22L258.26 413.612C260.861 415.925 266.047 419.328 271.221 418.911C275.254 418.586 280.314 417.827 284.106 417.186L285.644 427.31C280.446 429.532 270.469 433.306 268.302 432.222C266.858 431.5 263.363 428.799 260.176 426.22Z" fill="#7A705E" fill-opacity="0.5"></path>
<path fill-rule="evenodd" clip-rule="evenodd" d="M267.12 471.912L265.714 462.665C265.616 462.021 265.646 461.373 265.794 460.771C272.434 457.425 280.174 449.544 285.204 443.593L283.736 446.288C282.78 448.042 283.148 450.459 284.581 451.85L289.127 456.262C289.819 456.932 290.289 457.876 290.446 458.907L290.975 462.388L287.526 467.944L267.12 471.912Z" fill="#7A705E" fill-opacity="0.5"></path>
<path d="M301.297 325.862L298.891 333.742" stroke="#464646" stroke-width="0.997163" stroke-linecap="round"></path>
<path d="M305.237 327.064L302.831 334.945" stroke="#464646" stroke-width="0.997163" stroke-linecap="round"></path>
<path fill-rule="evenodd" clip-rule="evenodd" d="M285.84 499.519L275.041 501.16C273.164 501.445 271.363 499.836 271.018 497.566L269.826 489.723C275.083 493.267 281.162 496.627 285.085 496.715C288.168 496.783 287.703 498.005 285.84 499.519Z" fill="#7A705E" fill-opacity="0.5"></path>
<path d="M290.527 389.751L296.404 395.795L288.231 397.863L290.527 389.751Z" fill="#464646"></path>
<path d="M364.211 334.936L370.088 340.98L361.915 343.047L364.211 334.936Z" fill="#464646"></path>
<path d="M318.491 416.041L324.368 422.085L316.195 424.152L318.491 416.041Z" fill="#464646"></path>
<path d="M362.189 374.278L370.455 375.935L364.887 382.265L362.189 374.278Z" fill="#464646"></path>
<path d="M320.873 307.187L329.139 308.845L323.571 315.174L320.873 307.187Z" fill="#464646"></path>
<path d="M263.533 344.12L271.799 345.778L266.231 352.107L263.533 344.12Z" fill="#464646"></path>
<path d="M215.435 344.12L223.701 345.778L218.133 352.107L215.435 344.12Z" fill="#464646"></path>
<path d="M227.44 478.513L235.706 480.171L230.138 486.501L227.44 478.513Z" fill="#464646"></path>
<path d="M233.843 419.18L237.946 426.545L229.517 426.416L233.843 419.18Z" fill="#464646"></path>
<path d="M264.728 292.663L270.605 298.707L262.432 300.775L264.728 292.663Z" fill="#464646"></path>
<path d="M626.472 485.536C619.656 488.329 606.303 485.536 600.102 483.301L606.303 478.175L632.282 482.295C632.282 482.295 627.242 485.22 626.472 485.536Z" fill="#D69962"></path>
<path d="M575.001 466.419L656.418 479.003C656.17 480.606 656.046 481.407 655.796 482.048C654.911 484.317 652.793 485.868 650.364 486.026C649.677 486.071 648.876 485.947 647.273 485.699L581.698 475.564C580.095 475.317 579.293 475.193 578.652 474.943C576.384 474.058 574.833 471.94 574.674 469.51C574.629 468.824 574.753 468.022 575.001 466.419Z" fill="#BEBEBE"></path>
<path d="M677.348 485.451C677.008 487.651 648.918 485.137 614.609 479.834C580.299 474.531 552.762 468.448 553.102 466.248C553.239 465.358 557.91 465.239 565.693 465.763C577.166 466.536 595.399 468.705 615.841 471.865C634.504 474.749 651.163 477.865 662.422 480.46C671.86 482.637 677.503 484.447 677.348 485.451Z" fill="#DBDBDB"></path>
<path d="M553.102 466.248C553.239 465.358 557.91 465.239 565.693 465.763L553.464 463.905L553.102 466.248Z" fill="#DBDBDB"></path>
<path d="M662.422 480.46C671.86 482.637 677.503 484.447 677.348 485.451L677.756 482.809L670.514 481.69L662.422 480.46Z" fill="#DBDBDB"></path>
<ellipse cx="615.599" cy="473.425" rx="62.8605" ry="4.03174" transform="rotate(8.78606 615.599 473.425)" fill="white"></ellipse>
<path d="M654.824 478.689C655.676 478.886 655.483 480.006 654.613 479.909C644.767 478.809 629.014 476.939 615.132 474.793C601.201 472.64 586.406 469.785 577.325 467.959C576.473 467.787 576.622 466.68 577.489 466.745C586.743 467.431 601.789 468.756 615.732 470.911C629.625 473.058 645.155 476.452 654.824 478.689Z" fill="#DBDBDB"></path>
<path d="M659.04 479.345C659.834 479.578 659.638 480.622 658.813 480.557C653.24 480.118 644.325 479.305 636.502 478.096C628.651 476.883 620.35 475.031 615.264 473.822C614.468 473.632 614.591 472.6 615.409 472.611C620.668 472.679 629.23 472.997 637.102 474.213C644.943 475.425 653.645 477.768 659.04 479.345Z" fill="#D5E8FD"></path>
<path d="M639.52 476.631C629.303 478.315 623.835 484.784 622.378 487.808C617.735 493.38 631.569 496.403 633.603 494.582C635.021 493.313 641.217 494.945 644.842 496.051C646.555 496.573 648.41 496.441 649.995 495.609L655.2 492.876C655.2 492.876 660.767 485.135 669.898 485.641C679.029 486.148 677.817 483.324 678.995 477.941C680.172 472.557 674.37 472.587 669.609 469.687C664.849 466.786 658.404 462.562 650.051 461.045C641.699 459.527 652.292 474.527 639.52 476.631Z" fill="#7D55FF"></path>
<path d="M349.521 425.24L355.398 431.285L347.225 433.352L349.521 425.24Z" fill="#464646"></path>
<path d="M270.965 492.86C292.489 502.63 289.061 491.444 305.902 488.126C307.433 487.824 312.147 483.552 317.158 481.727C343.068 472.292 404.274 444.546 400.783 435.811C389.357 407.221 367.34 420.136 360.147 423.209C356.476 424.777 330.474 445.143 308.65 459.167C305.032 461.492 299.425 461.783 299.425 461.783L297.608 454.994C295.871 452.412 292.868 450.433 290.06 451.776L277.368 462.776C273.338 464.368 266.908 465.725 266.908 465.725C266.908 465.725 270.567 473.729 269.878 479.764C275.09 488.217 271.042 486.271 270.965 492.86Z" fill="#FFB877"></path>
<path d="M258.429 461.384C258.611 460.612 259.619 460.387 260.29 460.81C262.227 462.031 266.422 463.93 273.739 463.888C275.127 465.181 276.672 468.002 275.481 471.276C276.275 472.573 278.962 475.826 276.795 478.893C278.334 481.046 279.753 483.233 278.373 486.303C278.801 488.497 279.861 488.798 280.189 490.521C280.805 493.748 281.324 496.537 281.324 496.537C275.838 495.626 271.937 494.044 268.358 491.973L263.485 484.158C261.466 481.111 261.466 479.442 262.86 476.49C261.286 475.154 258.106 468.995 260.47 468.305C259.239 465.839 257.751 464.262 258.429 461.384Z" fill="#F0A968"></path>
<path d="M288.046 416.777C287.645 416.092 286.617 416.161 286.096 416.759C284.518 418.574 280.792 421.837 273.174 424.014C272.139 425.753 271.401 429.103 273.599 432.1C273.174 433.665 271.395 437.799 274.531 440.292C273.599 442.956 272.8 445.62 275.131 448.351C275.348 450.725 274.353 451.351 274.531 453.213C274.865 456.701 276.09 458.6 276.09 458.6C281.434 456.027 284.034 454.354 287.08 451.162L289.734 441.704C290.889 437.98 290.391 436.271 288.081 433.665C289.293 431.827 290.707 424.569 288.081 424.569C288.61 421.643 289.681 419.569 288.046 416.777Z" fill="#FFB877"></path>
<path d="M279.379 456.814C257.533 469.402 260.02 457.173 241.799 455.383C240.142 455.22 234.698 451.17 229.189 449.748C200.709 442.397 132.87 419.238 135.678 409.604C144.867 378.074 169.572 389.52 177.526 392.043C181.585 393.33 211.286 412.276 235.901 424.921C239.981 427.016 245.964 426.749 245.964 426.749L248.22 419.466C249.799 416.546 253.28 415.224 256.399 416.36L273.801 424.282C278.244 425.557 280.894 427.587 280.894 427.587C280.894 427.587 286.596 437.222 287.949 443.559C283.284 453.069 286.508 452.706 279.379 456.814Z" fill="#FFB877"></path>
<path fill-rule="evenodd" clip-rule="evenodd" d="M158.756 404.86C167.258 421.458 227.389 441.819 241.224 426.472C243.82 426.845 245.965 426.749 245.965 426.749L248.221 419.466C248.252 419.408 248.284 419.35 248.317 419.293C250.253 417.938 252.349 416.845 254.484 415.965C255.125 416.002 255.77 416.131 256.399 416.36L273.801 424.282C274.891 424.595 275.874 424.953 276.736 425.316L281.169 455.738C280.658 456.064 280.067 456.418 279.379 456.814C265.425 464.855 261.399 462.77 255.562 459.748C252.262 458.039 248.382 456.03 241.799 455.383C241.126 455.317 239.827 454.609 238.154 453.696C235.708 452.363 232.46 450.592 229.189 449.748C200.71 442.397 132.871 419.238 135.678 409.604C137.345 403.885 139.523 399.58 142.018 396.379C150.465 381.528 167.467 359.346 177.084 346.799C178.545 344.893 179.835 343.209 180.9 341.808C180.9 341.808 203.651 347.431 196.967 349.113C169.213 356.096 147.082 382.067 158.756 404.86Z" fill="#F0A968"></path>
<path fill-rule="evenodd" clip-rule="evenodd" d="M195.01 309.078L214.174 366.77L213.825 389.921C212.817 381.909 211.69 374.555 210.489 368.303L201.761 383.762C200.204 369.121 184.082 354.769 173.291 345.163C172.573 344.524 171.879 343.906 171.215 343.311C176.115 332.444 184.902 319.402 195.01 309.078Z" fill="#FCFCFC"></path>
<path d="M183.132 332.703L185.691 340.736L177.455 338.935L183.132 332.703Z" fill="#464646"></path>
<rect x="32" y="544.752" width="800" height="61.2481" fill="#C4B6FF"></rect>
<rect x="32" y="589.446" width="800" height="16.5543" fill="#7D55FF"></rect>
<path d="M648.805 464.754V5.83934L832 0.787598V588.668L760.28 544.649V549.615L648.805 464.754Z" fill="#B5CDFB"></path>
<path d="M648.805 464.754V5.83885L832 0.787109V588.667L760.28 544.648V549.615L648.805 464.754Z" fill="white" fill-opacity="0.23"></path>
<path d="M699.811 424.419L705.45 67.7526L832 72.9104V502.768L699.811 424.419Z" fill="#E7E7E7"></path>
<path d="M720.399 401.578L725.789 95.35L832.001 105.146V466.694L720.399 401.578Z" fill="#B5CDFB"></path>
<path d="M720.399 401.578L725.789 95.3501L832.001 105.146V466.694L720.399 401.578Z" fill="white" fill-opacity="0.56"></path>
<path d="M736.674 298.419L735.083 247.142C735.083 244.272 739.29 243.927 742.109 244.471L752.579 246.493C754.729 246.908 756.281 248.789 756.281 250.978V304.846C756.281 308.417 749.561 310.652 746.517 308.784L738.853 302.313C737.499 301.482 736.674 300.008 736.674 298.419Z" fill="#7D55FF"></path>
<path d="M733.868 298.737V248.267C733.868 245.754 736.159 243.863 738.627 244.34L750.234 246.581C752.116 246.945 753.475 248.592 753.475 250.509V305.861C753.475 308.989 750.048 310.906 747.383 309.27L735.776 302.146C734.591 301.419 733.868 300.128 733.868 298.737Z" fill="#C4B6FF"></path>
<path d="M725.917 95.9203L720.867 400.12L700.454 423.775L705.504 67.5005L725.917 95.9203Z" fill="#FEFEFE"></path>
<path d="M739.796 258.191C739.796 256.515 742.837 256.866 744.513 256.866C746.189 256.866 747.548 258.225 747.548 259.901V293.578C747.548 295.254 746.189 296.613 744.513 296.613C742.837 296.613 739.796 296.935 739.796 295.259V258.191Z" fill="#B5CDFB"></path>
<path d="M738.443 259.901C738.443 258.225 739.802 256.866 741.478 256.866C743.155 256.866 744.513 258.225 744.513 259.901V293.578C744.513 295.254 743.155 296.613 741.478 296.613C739.802 296.613 738.443 295.254 738.443 293.578V259.901Z" fill="#7D55FF"></path>
<path d="M264.783 528.788C266.136 534.536 252.546 542.179 251.865 542.471L247.748 540.912C246.89 540.037 244.76 537.99 243.101 536.796C241.027 535.304 242.829 532.83 245.236 530.993C247.644 529.156 247.148 526.864 246.145 524.993C245.142 523.121 246.591 520.922 248.38 520.343C250.168 519.764 248.793 517.436 248.035 515.108C247.276 512.779 251.487 512.018 253.993 512.182C256.499 512.345 257.191 508.446 259.593 507C261.995 505.554 262.727 508.894 262.119 510.312C261.51 511.731 262.98 513.299 265.22 514.54C267.461 515.781 265.457 520.671 263.103 523.051C260.524 525.658 264.13 526.019 264.783 528.788Z" fill="#C6D303"></path>
<path d="M320.774 521.62C322.128 527.368 308.537 535.011 307.856 535.303L303.739 533.744C302.881 532.869 300.752 530.822 299.092 529.628C297.019 528.136 298.82 525.662 301.228 523.825C303.635 521.989 303.139 519.696 302.136 517.825C301.133 515.953 302.582 513.754 304.371 513.175C306.159 512.596 304.784 510.268 304.026 507.94C303.267 505.611 307.478 504.85 309.984 505.014C312.49 505.177 313.182 501.278 315.584 499.832C317.986 498.386 318.719 501.726 318.11 503.144C317.501 504.563 318.971 506.131 321.212 507.372C323.452 508.613 321.448 513.503 319.094 515.883C316.515 518.49 320.122 518.851 320.774 521.62Z" fill="#B3C13C"></path>
<rect x="295.683" y="501.67" width="2.5435" height="40.3161" rx="1.27175" transform="rotate(12.0096 295.683 501.67)" fill="#EFC474"></rect>
<path d="M296.863 530.501C298.217 536.249 284.626 543.892 283.945 544.183L279.828 542.624C278.97 541.75 276.84 539.702 275.181 538.508C273.107 537.016 274.909 534.542 277.316 532.705C279.724 530.869 279.228 528.577 278.225 526.705C277.222 524.833 278.671 522.635 280.46 522.056C282.248 521.477 280.873 519.149 280.115 516.82C279.356 514.491 283.567 513.73 286.073 513.894C288.579 514.058 289.271 510.158 291.673 508.712C294.075 507.266 294.807 510.606 294.199 512.025C293.59 513.443 295.06 515.012 297.3 516.253C299.541 517.494 297.537 522.383 295.183 524.763C292.604 527.371 296.211 527.731 296.863 530.501Z" fill="#B3C13C"></path>
<path d="M293.822 522.052C294.376 523.575 293.896 526.541 292.199 527.158C290.502 527.775 288.23 525.81 287.676 524.287C287.122 522.764 287.596 519.782 289.293 519.165C290.99 518.548 293.268 520.529 293.822 522.052Z" fill="#3F3F3F"></path>
<ellipse cx="292.445" cy="570.072" rx="69.5439" ry="3.92894" fill="#4A3D24" fill-opacity="0.1"></ellipse>
<path d="M349.745 568.379C349.745 570.929 324.143 572.995 292.562 572.995C260.981 572.995 235.38 570.929 235.38 568.379C235.38 567.349 239.563 566.397 246.632 565.629C257.053 564.497 273.746 563.763 292.562 563.763C309.741 563.763 325.151 564.375 335.633 565.343C344.421 566.154 349.745 567.217 349.745 568.379Z" fill="#B9A57F"></path>
<path d="M235.38 568.379C235.38 567.349 239.563 566.397 246.632 565.629L235.38 565.665V568.379Z" fill="#B9A57F"></path>
<path d="M335.633 565.343C344.421 566.154 349.745 567.217 349.745 568.379V565.319H343.079L335.633 565.343Z" fill="#B9A57F"></path>
<ellipse cx="292.562" cy="565.571" rx="57.1825" ry="4.61605" fill="#E3D6B8"></ellipse>
<circle cx="288.927" cy="529.828" r="5.42065" fill="#6E2AC4"></circle>
<circle cx="258.115" cy="526.199" r="5.05619" fill="#6E2AC4"></circle>
<circle cx="347.739" cy="533.281" r="5.05619" fill="#6E2AC4"></circle>
<path d="M341.857 566.027C341.857 567.32 318.976 567.741 290.75 567.741C262.525 567.741 243.781 567.27 243.781 565.978C245.73 562.08 262.525 563.688 290.75 563.688C318.976 563.688 341.857 564.735 341.857 566.027Z" fill="#4A3D24" fill-opacity="0.1"></path>
<path d="M274.15 522.057C276.483 523.182 280.614 526.438 278.473 530.463C275.797 535.494 269.717 535.769 268.071 533.854C266.755 532.322 265.486 529.389 265.016 528.114C262.447 528.899 256.693 529.275 254.226 524.498C251.759 519.721 252.403 516.02 253.034 514.767C251.56 513.615 249.298 510.381 252.04 506.659C255.467 502.006 263.421 505.499 262.745 509.58" stroke="#FFD704" stroke-width="4"></path>
<circle cx="299.243" cy="523.356" r="9.13529" fill="#FF2030"></circle>
<circle cx="299.242" cy="523.987" r="7.02145" fill="#FF616C"></circle>
<path d="M302.735 544.73C314.761 535.121 329.169 509.247 334.87 497.511C323.728 528.929 310.807 540.212 304.529 545.577L302.735 544.73Z" fill="#138600"></path>
<circle cx="244.431" cy="527.252" r="7.68286" fill="#FF2030"></circle>
<circle cx="281.843" cy="534.681" r="7.68286" fill="#FF2030"></circle>
<path d="M622.632 515.347H694.069L730.068 538.172H659.744L622.632 515.347Z" fill="#7E7460"></path>
<path d="M673.437 538.209V515.355L613.01 515.355L638.511 538.209H673.437Z" fill="#C1B8A6"></path>
<path d="M271.832 557.14C259.806 547.53 245.398 521.656 239.697 509.92C250.839 541.338 263.761 552.621 270.039 557.987L271.832 557.14Z" fill="#138600"></path>
<circle cx="332.946" cy="521.767" r="10.5042" fill="#FF2030"></circle>
<path d="M638.271 537.734L744.652 537.733L745.784 538.643L636.859 538.964L638.271 537.734Z" fill="#B3AB9A"></path>
<path d="M321.571 512.226C320.706 514.352 317.386 517.012 315.017 516.048C312.648 515.084 312.128 510.863 312.993 508.736C313.858 506.61 317.187 503.928 319.556 504.891C321.925 505.855 322.436 510.1 321.571 512.226Z" fill="#3F3F3F"></path>
<path d="M239.443 526.663C236.048 527.292 240.858 535.518 243.687 539.553H253.276C261.503 540.129 278.804 540.716 282.2 538.453C286.444 535.623 278.741 533.422 275.755 530.907C272.768 528.392 279.685 521.004 272.139 517.074C264.594 513.144 260.979 529.807 257.992 529.807C255.005 529.807 258.464 520.061 252.176 519.589C245.888 519.117 249.346 528.078 247.617 529.807C245.888 531.536 243.687 525.877 239.443 526.663Z" fill="#B3C13C"></path>
<path d="M349.942 521.947C354.833 522.852 347.904 534.701 343.829 540.512H330.017C318.168 541.343 318.839 540.512 318.839 540.512L314.763 533.081C314.763 533.081 322.546 512.437 331.602 511.758C340.659 511.079 335.678 523.984 338.168 526.475C340.659 528.966 343.829 520.815 349.942 521.947Z" fill="#A7B200"></path>
<path d="M313.707 518.833C311.223 519.567 306.622 522.115 308.085 526.432C309.915 531.829 315.871 533.081 317.804 531.457C319.35 530.157 321.076 527.468 321.745 526.285C324.153 527.474 329.772 528.774 332.977 524.457C336.182 520.14 336.143 516.384 335.723 515.046C337.364 514.147 340.118 511.319 338.012 507.204C335.38 502.059 326.967 504.224 326.976 508.36" stroke="#B61A26" stroke-width="4"></path>
<path d="M349.184 536.112C347.811 537.486 344.348 538.468 342.818 536.937C341.288 535.407 342.27 531.944 343.643 530.571C345.017 529.198 348.494 528.201 350.025 529.731C351.555 531.261 350.558 534.739 349.184 536.112Z" fill="#3F3F3F"></path>
<path d="M306.129 504.676C301.488 502.886 295.728 529.975 296.157 537.06L309.459 541.156C319.119 548.068 322.189 542.043 322.189 542.043L328.759 543.359C328.759 543.359 334.449 510.921 327.089 505.599C319.729 500.278 317.214 513.881 313.788 514.699C310.362 515.516 311.93 506.913 306.129 504.676Z" fill="#D1D95E"></path>
<path d="M238.373 530.348C239.87 531.741 241.034 535.347 239.482 537.014C237.93 538.682 234.249 537.78 232.753 536.387C231.256 534.994 230.075 531.373 231.627 529.705C233.179 528.038 236.876 528.955 238.373 530.348Z" fill="#3F3F3F"></path>
<rect x="344.64" y="512.761" width="4.73909" height="40.3161" transform="rotate(24.179 344.64 512.761)" fill="#FFC940"></rect>
<path d="M638.365 537.774L613.023 515.344L611.294 515.89L636.93 538.962L638.365 537.774Z" fill="#D7CDB7"></path>
<rect x="272.023" y="509.664" width="2.5435" height="40.3161" transform="rotate(-38.7524 272.023 509.664)" fill="#EDB21B"></rect>
<path d="M275.87 531.942C276.424 533.465 275.944 536.43 274.247 537.047C272.55 537.664 270.278 535.7 269.724 534.177C269.17 532.653 269.643 529.672 271.341 529.054C273.038 528.437 275.316 530.418 275.87 531.942Z" fill="#3F3F3F"></path>
<rect width="2.5435" height="40.3161" transform="matrix(-0.779858 -0.625957 -0.625957 0.779858 303.718 520.959)" fill="#EDB21B"></rect>
<rect x="228.817" y="517.94" width="2.5435" height="40.3161" rx="1.27175" transform="rotate(-26.7125 228.817 517.94)" fill="#EFC474"></rect>
<path d="M311.589 560.096C323.616 550.486 338.024 524.612 343.725 512.876C332.583 544.294 319.661 555.577 313.383 560.943L311.589 560.096Z" fill="#138600"></path>
<path d="M261.142 554.441C273.168 544.832 287.577 518.958 293.278 507.222C282.135 538.64 269.214 549.922 262.936 555.288L261.142 554.441Z" fill="#138600"></path>
<path d="M301.833 517.155C303.233 514.976 306.968 511.273 310.703 513.887C315.371 517.155 314.904 523.224 312.803 524.624C311.123 525.745 308.057 526.647 306.735 526.958C307.201 529.604 306.875 535.361 301.833 537.229C296.791 539.096 293.197 538.007 292.03 537.229C290.707 538.551 287.221 540.403 283.86 537.229C279.659 533.261 284.093 525.791 288.061 526.958" stroke="#FFD704" stroke-width="4"></path>
<circle cx="283.448" cy="518.886" r="0.683222" fill="#FCFCFC"></circle>
<circle cx="267.123" cy="530.855" r="0.683222" fill="#FCFCFC"></circle>
<circle cx="280.736" cy="508.072" r="1.10721" fill="#FCFCFC"></circle>
<circle cx="295.103" cy="517.883" r="0.917169" fill="#FCFCFC"></circle>
<circle cx="278.363" cy="525.516" r="0.683222" fill="#FCFCFC"></circle>
<circle cx="273.987" cy="533.174" r="0.683222" fill="#FCFCFC"></circle>
<circle cx="284.615" cy="508.755" r="0.683222" fill="#FCFCFC"></circle>
<circle cx="286.983" cy="527.252" r="0.683222" fill="#FCFCFC"></circle>
<circle cx="290.21" cy="513.822" r="0.683222" fill="#FCFCFC"></circle>
<circle cx="278.004" cy="515.521" r="0.683222" fill="#FCFCFC"></circle>
<circle cx="292.732" cy="510.121" r="0.683222" fill="#FCFCFC"></circle>
<circle cx="285.128" cy="512.58" r="0.683222" fill="#FCFCFC"></circle>
<circle cx="281.161" cy="512.305" r="0.683222" fill="#FCFCFC"></circle>
<circle cx="289.127" cy="520.426" r="0.683222" fill="#FCFCFC"></circle>
<circle cx="274.16" cy="520.224" r="0.856577" fill="#FCFCFC"></circle>
<circle cx="304.923" cy="523.724" r="0.683222" fill="#FCFCFC"></circle>
<circle cx="288.443" cy="508.496" r="0.683222" fill="#FCFCFC"></circle>
<circle cx="286.5" cy="505.628" r="0.482731" fill="#FCFCFC"></circle>
<circle cx="297.953" cy="513.139" r="0.807079" fill="#FCFCFC"></circle>
<circle cx="291.612" cy="505.829" r="0.807079" fill="#FCFCFC"></circle>
<circle cx="295.473" cy="525.297" r="0.902222" fill="#FCFCFC"></circle>
<circle cx="305.142" cy="531.91" r="0.902222" fill="#FCFCFC"></circle>
<circle cx="268.516" cy="524.833" r="0.987961" fill="#FCFCFC"></circle>
<circle cx="320.553" cy="536.134" r="9.13529" fill="#FF2030"></circle>
<circle cx="320.553" cy="536.765" r="7.02145" fill="#FF616C"></circle>
<circle cx="254.837" cy="537.411" r="9.13529" fill="#B61A26"></circle>
<circle cx="254.837" cy="538.042" r="7.02145" fill="#9E1A25"></circle>
<path d="M321.985 530.346C323.427 531.687 324.547 535.159 323.053 536.765C321.559 538.371 318.015 537.502 316.574 536.161C315.132 534.82 313.996 531.333 315.49 529.727C316.984 528.121 320.544 529.004 321.985 530.346Z" fill="#3F3F3F"></path>
<path fill-rule="evenodd" clip-rule="evenodd" d="M229.735 533.995H268.293H316.832H355.39L346.564 555.265C343.775 561.986 337.214 566.367 329.938 566.367H316.832H268.293H255.187C247.911 566.367 241.35 561.986 238.561 555.265L229.735 533.995Z" fill="#B9A57F"></path>
<path fill-rule="evenodd" clip-rule="evenodd" d="M349.12 549.105L346.564 555.266C343.775 561.986 337.214 566.367 329.938 566.367H316.832H268.293H255.187C247.911 566.367 241.35 561.986 238.562 555.266L236.164 549.488C242.571 554.794 252.211 561.357 261.092 561.77C262.726 561.846 264.383 561.925 266.058 562.006C284.576 562.892 305.362 563.887 322.616 561.77C332.984 560.498 343.024 553.899 349.12 549.105Z" fill="#4A3D24" fill-opacity="0.1"></path>
<path d="M644.185 499.537C643.843 500.056 643.321 501.271 643.971 501.977C644.784 502.86 645.278 501.155 644.185 499.537Z" fill="#D0E6FF"></path>
<path d="M707.968 537.727L673.109 515.316H715.469L744.605 537.727H707.968Z" fill="#C1B8A6"></path>
<path d="M671.043 441.308H663.571C663.571 443.466 654.194 468.466 653.23 470.122C652.267 471.777 656.171 472.345 656.788 472.37C657.406 472.395 659.877 472.074 661.113 473.68C663.369 476.613 667.163 472.354 666.426 476.752C662.943 481.518 667.541 491.386 668.862 496.818C671.987 509.663 672.129 524.576 671.832 537.763H675.169C674.178 514.007 672.342 465.328 672.894 465.282C673.446 465.236 677.992 486.36 677.992 486.36C677.992 486.36 673.868 454.493 671.043 441.308Z" fill="#D0E6FF" fill-opacity="0.9"></path>
<path opacity="0.7" d="M671.009 441.669H663.648C663.866 442.52 666.169 444.629 665.41 446.723C664.461 449.34 665.475 451.598 665.704 454.575C665.933 457.552 659.914 459.646 658.997 462.002C658.081 464.357 659.783 463.867 662.564 463.507C665.345 463.147 667.013 465.83 669.63 466.778C672.248 467.727 670.584 465.445 671.009 463.09C671.434 460.734 672.972 459.916 674.117 462.337C675.033 464.274 672.023 449.412 671.009 441.669Z" fill="#EDF5FF"></path>
<path d="M670.391 490.789C669.373 485.622 670.816 475.84 671.665 471.595C672.146 473.331 672.949 477.214 672.314 478.862C671.52 480.922 673.124 495.119 672.854 497.685C672.638 499.738 674.263 525.228 675.113 537.754C671.606 519.628 671.636 497.1 670.391 490.789Z" fill="#E5F1FF"></path>
<path d="M663.024 523.893C661.821 520.282 663.526 510.436 664.529 505.965V521.887C664.529 523.994 664.096 526.614 663.657 528.673C663.562 529.906 663.269 530.82 663.024 531.289C663.196 530.673 663.428 529.749 663.657 528.673C663.757 527.381 663.64 525.74 663.024 523.893Z" fill="#E5F1FF"></path>
<path d="M660.464 537.727C660.464 537.727 658.115 531.447 659.118 526.975C659.118 530.945 662.234 537.727 662.234 537.727H660.464Z" fill="#E5F1FF"></path>
<path d="M674.972 501.333C674.619 501.845 674.072 503.048 674.707 503.769C675.501 504.669 676.031 502.974 674.972 501.333Z" fill="#E5F1FF"></path>
<path d="M660.947 444.046C660.369 444.275 659.246 444.972 659.374 445.924C659.535 447.113 660.916 445.998 660.947 444.046Z" fill="#D0E6FF"></path>
<path d="M640.476 486.749C639.89 487.637 638.997 489.717 640.11 490.926C641.502 492.439 642.347 489.519 640.476 486.749Z" fill="#D0E6FF"></path>
<path d="M632.681 490.728C631.904 491.455 630.548 493.267 631.347 494.704C632.345 496.501 633.851 493.861 632.681 490.728Z" fill="#D0E6FF"></path>
<path d="M677.139 458.703C677.106 459.767 677.436 462.006 679.019 462.452C680.997 463.01 680.186 460.081 677.139 458.703Z" fill="#D0E6FF"></path>
<path d="M676.98 487.317C676.614 488.317 676.222 490.546 677.584 491.467C679.286 492.62 679.438 489.584 676.98 487.317Z" fill="#D0E6FF"></path>
<path d="M657.822 460.304C657.515 459.285 656.49 457.267 654.847 457.347C652.795 457.447 654.495 459.966 657.822 460.304Z" fill="#D0E6FF"></path>
<path d="M668.897 441.669L669.659 453.12" stroke="white" stroke-opacity="0.8" stroke-width="3" stroke-linecap="round"></path>
<ellipse cx="91.1254" cy="573.996" rx="78.4594" ry="2.35647" fill="#4A3D24" fill-opacity="0.1"></ellipse>
<path d="M31.5498 562.634H148.331L141.08 569.304C136.239 572.668 129.894 573.996 122.047 573.996H57.9557C50.1886 573.996 44.3688 572.929 39.0298 569.402L31.5498 562.634Z" fill="#D5C7A6"></path>
<path d="M179.047 566.819C179.047 569.976 139.153 572.535 89.9405 572.535C40.7283 572.535 0.833984 569.976 0.833984 566.819C0.833984 565.544 7.35184 564.365 18.3684 563.414C34.6069 562.013 60.6199 561.104 89.9405 561.104C116.71 561.104 140.723 561.861 157.057 563.06C170.75 564.065 179.047 565.38 179.047 566.819Z" fill="#E3D6B8"></path>
<path d="M0.833984 566.819C0.833984 565.544 7.35184 564.365 18.3684 563.414L0.833984 563.459V566.819Z" fill="#E3D6B8"></path>
<path d="M157.057 563.06C170.75 564.065 179.047 565.38 179.047 566.819V563.03H168.66L157.057 563.06Z" fill="#E3D6B8"></path>
<ellipse cx="89.9405" cy="563.343" rx="89.1065" ry="5.71511" fill="white"></ellipse>
<path d="M134.534 565.31C134.534 566.612 113.417 567.667 87.3694 567.667C61.3213 567.667 40.2051 565.31 40.2051 565.31C40.2051 565.31 42.5982 562.487 68.6463 562.487C94.6945 562.487 134.534 564.009 134.534 565.31Z" fill="#4A3D24" fill-opacity="0.1"></path>
<path d="M97.9582 499.001C79.5485 499.001 56.326 502.351 51.2243 507.1C63.552 498.171 94.3088 509.189 108.146 515.814L118.002 565.825L124.562 564.803C127.938 564.277 130.6 561.678 130.993 558.284C132.288 547.109 133.792 522.238 123.541 510.716C117.634 504.078 105.835 499.001 97.9582 499.001Z" fill="#FFC940"></path>
<path d="M53.9091 505.293C43.2751 509.551 43.9401 535.654 47.9306 554.488C49.2454 560.693 54.6978 564.963 61.0303 565.327C91.7798 567.099 118.053 565.806 118.053 565.806L115.738 526.047C115.139 519.21 110.858 513.222 104.308 511.174C88.2747 506.161 64.0098 501.249 53.9091 505.293Z" fill="#EBA900"></path>
<path d="M69.9777 522.538C69.9777 525.911 66.4335 525.969 62.0614 525.969C57.6893 525.969 51.0518 529.342 51.0518 525.969C51.0518 522.596 53.0489 515.184 62.0614 516.431C66.4335 516.431 69.9777 519.165 69.9777 522.538Z" fill="#B68300"></path>
<path d="M75.7379 531.852C75.7379 533.39 74.1216 533.444 72.1277 533.444C70.1339 533.444 68.5176 533.39 68.5176 531.852C68.5176 530.314 70.1339 529.067 72.1277 529.067C74.1216 529.067 75.7379 530.314 75.7379 531.852Z" fill="#B68300"></path>
<path d="M102.824 551.929C102.865 549.422 104.555 549.363 106.636 549.397C108.718 549.432 110.404 549.547 110.363 552.053C110.322 554.56 108.6 556.564 106.519 556.53C104.437 556.495 102.783 554.435 102.824 551.929Z" fill="#B68300"></path>
<path d="M104.435 518.766C104.435 520.1 103.356 521.18 102.025 521.18C100.694 521.18 101.133 520.1 101.133 518.766C101.133 517.433 100.694 516.352 102.025 516.352C103.356 516.352 104.435 517.433 104.435 518.766Z" fill="#B68300"></path>
<path d="M56.7054 554.572C57.3422 553.401 58.8064 552.967 59.9758 553.602C61.1451 554.238 60.2437 554.978 59.6069 556.15C58.9701 557.321 58.8391 558.48 57.6697 557.844C56.5003 557.209 56.0686 555.744 56.7054 554.572Z" fill="#B68300"></path>
<path d="M126.413 535.515C123.778 536.006 123.13 534.867 122.857 533.399C122.583 531.931 122.397 528.594 125.032 528.103C127.668 527.612 127.918 529.195 128.191 530.663C128.51 532.375 129.049 535.024 126.413 535.515Z" fill="#EBA900"></path>
<path d="M124.258 537.579C122.001 538 121.485 537.238 121.299 536.239C121.113 535.24 121.06 532.954 123.317 532.534C125.575 532.113 125.737 533.193 125.923 534.192C126.14 535.357 126.515 537.159 124.258 537.579Z" fill="#EBA900"></path>
<path d="M65.3992 556.337C66.9157 554.361 72.2117 553.116 74.7739 555.082C77.3361 557.048 80.1795 557.768 78.663 559.744C77.1466 561.721 73.7661 563.496 71.2038 561.53C68.6416 559.564 63.8827 558.314 65.3992 556.337Z" fill="#B68300"></path>
<path fill-rule="evenodd" clip-rule="evenodd" d="M130.286 560.673C125.12 560.106 121.765 549.472 118.449 538.257C117.672 535.629 116.815 532.952 115.989 530.375L118.087 565.744L124.084 564.849C126.666 564.684 129.076 563.168 130.286 560.673Z" fill="#4A3D24" fill-opacity="0.1"></path>
<path fill-rule="evenodd" clip-rule="evenodd" d="M58.3494 504.175C59.3409 514.092 63.1987 522.116 73.4682 536.078C84.0011 550.399 114.945 531.027 115.993 530.363L117.963 565.705C117.963 565.705 91.7796 567.099 61.0302 565.328C54.6977 564.963 49.2453 560.694 47.9305 554.489C43.9399 535.655 43.2749 509.552 53.9089 505.294C55.1798 504.785 56.6748 504.418 58.3494 504.175Z" fill="#956100" fill-opacity="0.1"></path>
<path d="M88.9043 502.11C88.9043 503.443 87.8001 503.656 86.4691 503.656C85.1382 503.656 82.1826 503.443 82.1826 502.11C82.1826 500.776 83.6115 500.798 84.9425 500.798C86.4944 500.798 88.9043 500.776 88.9043 502.11Z" fill="#EBA900"></path>
<path d="M109.166 507.843C109.371 509.686 107.306 507.695 105.984 507.843C104.661 507.99 100.928 507.875 100.723 506.032C100.518 504.189 102.152 503.946 103.837 504.658C105.795 504.658 108.961 505.999 109.166 507.843Z" fill="#EBA900"></path>
<path d="M681.698 508.355L692.591 508.138C699.454 508.002 706.212 509.83 712.07 513.408L739.76 530.319C743.208 532.425 741.716 537.733 737.675 537.733H716.272C715.527 537.733 714.797 537.525 714.164 537.133L679.67 515.754C676.283 513.654 677.714 508.434 681.698 508.355Z" fill="#464646"></path>
<path d="M695.593 498.209C695.593 492.933 699.87 494.146 705.147 494.146C710.423 494.146 714.701 499.874 714.701 505.151V513.789H701.422L695.593 509.103V498.209Z" fill="#1A1A1A"></path>
<path d="M695.593 493.831L708.032 493.832L714.701 497.688V511.005H701.422L695.593 506.319V493.831Z" fill="#393939"></path>
<rect x="702.217" y="488.191" width="4.69788" height="9.38306" rx="1" fill="#2D2D2D"></rect>
<path d="M697.479 488.648C697.479 487.301 698.397 486.21 699.529 486.21H709.603C710.735 486.21 711.652 487.301 711.652 488.648C711.652 489.994 710.735 491.085 709.603 491.085H699.529C698.397 491.085 697.479 489.994 697.479 488.648Z" fill="#E2E2E2"></path>
<path fill-rule="evenodd" clip-rule="evenodd" d="M671.561 433.027C667.079 435.464 664.827 435.602 661.439 433.027C665.811 402.253 683.024 397.061 699.553 400.067C722.731 404.281 726.192 441.459 723.46 493.917C722.641 504.954 721.624 516.5 721.119 521.192C715.366 523.464 712.314 523.309 707.34 519.053C710.866 494.928 727.285 419.602 699.553 408.4C684.117 404.302 674.281 412.635 671.561 433.027Z" fill="#464646"></path>
<path d="M720.097 514.418C720.097 509.141 724.374 510.354 729.651 510.354C734.927 510.354 739.205 516.083 739.205 521.359V529.998H725.926L720.097 525.311V514.418Z" fill="#1A1A1A"></path>
<path d="M720.097 510.04L732.536 510.04L739.205 513.896V527.214H725.926L720.097 522.527V510.04Z" fill="#393939"></path>
<rect x="726.721" y="504.4" width="4.69788" height="9.38306" rx="1" fill="#2D2D2D"></rect>
<path d="M721.983 504.856C721.983 503.51 722.901 502.418 724.033 502.418H734.107C735.239 502.418 736.156 503.51 736.156 504.856C736.156 506.202 735.239 507.294 734.107 507.294H724.033C722.901 507.294 721.983 506.202 721.983 504.856Z" fill="#E2E2E2"></path>
<rect x="659.495" y="429.408" width="14.8444" height="12.1709" rx="3" fill="#FBFBFB"></rect>
<path fill-rule="evenodd" clip-rule="evenodd" d="M662.128 429.43C662.368 433.27 663.06 437.38 664.689 438.18C666.829 439.231 670.873 440.332 673.239 440.9C672.722 441.324 672.061 441.578 671.34 441.578H662.495C660.838 441.578 659.495 440.235 659.495 438.578V432.407C659.495 430.875 660.644 429.611 662.128 429.43Z" fill="black" fill-opacity="0.06"></path>
<path d="M760.274 544.67L752.634 544.78L752.693 548.179L756.895 552.771L765.299 547.703L760.274 544.67Z" fill="#C4B6FF"></path>
<path d="M649.759 523.421C650.567 520.954 650.143 513.353 648.795 506.61C648.017 502.719 648.955 496.186 650.005 491.134C649.779 491.142 649.536 491.135 649.295 491.107C649.481 493.186 649.392 495.985 647.899 497.129C645.501 498.965 646.888 495.908 645.042 495.402C643.196 494.897 641.764 499.817 641.045 499.106C640.326 498.394 642.554 497.049 643.478 495.032C644.402 493.015 642.949 486.687 642.974 486.044L645.389 486.312C646.461 486.052 647.538 485.822 647.668 485.902C647.868 486.025 649.949 486.68 650.965 486.993C651.023 486.77 651.079 486.557 651.133 486.355C651.113 486.57 651.094 486.784 651.076 486.997L657.041 488.082L658.02 488.26L662.541 488.292C662.263 489.04 661.622 490.532 661.274 490.519C660.839 490.502 660.868 494.638 660.319 495.986C659.77 497.333 658.987 498.298 658.93 499.789C658.873 501.279 657.466 502.78 657.542 500.793C657.618 498.806 659.526 497.199 657.812 493.716C656.592 491.237 656.683 489.278 656.94 488.371C655.912 488.541 654.845 488.921 655.065 489.656C655.443 490.922 654.604 492.768 653.86 492.142C653.116 491.516 652.135 490.369 651.918 491.584C651.701 492.799 651.584 493.793 651.21 493.72C651.093 493.697 650.962 493.658 650.837 493.616C650.997 507.812 655.313 517.406 652.869 519.079C650.597 520.634 651.587 528.517 652.366 532.264C651.718 530.544 648.951 525.888 649.759 523.421Z" fill="#E5F1FF"></path>
<path d="M522.439 436.854C513.131 432.368 497.326 403.032 486.855 381.897L527.135 367.772C534.309 384.447 544.776 411.608 548.033 413.004C550.96 414.259 593.997 439.225 620.917 453.556C623.322 454.836 626.584 454.419 628.675 455.533C634.351 461.707 640.777 461.994 642.167 462.752C642.342 462.847 642.524 462.943 642.713 463.038C645.976 462.305 650.533 462.083 653.643 464.487C656.006 466.313 657.382 468.339 658.134 470.018C663.509 473.129 668.989 477.643 672.996 484.856C676.594 491.332 675.476 494.086 672.284 494.746C670.974 496.324 668.84 497.847 665.508 498.593C659.019 500.046 649.932 496.44 650.323 494.937C650.554 494.045 653.977 492.304 656.725 491.034C655.62 490.53 654.579 490.015 653.643 489.513C640.028 482.212 637.537 494.937 616.548 468.514C594.454 462.752 548.033 449.191 522.439 436.854Z" fill="#FFB877"></path>
<path d="M454.281 290.571C459.865 277.076 482.59 272.151 493.254 271.376C515.126 271.376 531.452 340.015 536.881 374.335L475.222 395.276C465.915 365.997 448.697 304.067 454.281 290.571Z" fill="#464646"></path>
<path fill-rule="evenodd" clip-rule="evenodd" d="M476.795 274.502C475.645 292.939 482.064 326.408 482.064 326.408C482.064 326.408 484.425 359.069 504.954 368.772C508.101 370.259 511.29 372.352 514.261 374.303C517.432 376.383 520.354 378.301 522.712 379.147L475.222 395.276C465.915 365.997 448.697 304.067 454.281 290.571C457.662 282.4 467.328 277.37 476.795 274.502Z" fill="#243D4A" fill-opacity="0.2"></path>
<path opacity="0.7" fill-rule="evenodd" clip-rule="evenodd" d="M687.116 399.653C694.61 399.83 703.421 401.75 708.32 407.643C708.901 408.341 709.469 408.998 710.028 409.643C714.438 414.733 718.258 419.144 722.718 438.07C722.748 437.987 722.778 437.904 722.808 437.821C720.041 416.302 713.229 402.535 699.659 400.067C695.448 399.301 691.192 399.068 687.116 399.653Z" fill="white" fill-opacity="0.6"></path>
<ellipse cx="493.21" cy="578.483" rx="106.892" ry="2.06875" fill="#4A3D24" fill-opacity="0.3"></ellipse>
<path d="M410.015 578.138H593.36C595.546 578.138 597.317 576.128 597.317 573.649C597.317 565.385 573.823 558.685 566.539 558.685H443.213C435.929 558.685 406.059 565.385 406.059 573.649C406.059 576.128 407.83 578.138 410.015 578.138Z" fill="#EFC474"></path>
<path d="M456.535 567.308C455.826 563.153 459.267 559.388 461.444 558.67H470.903C466.112 560.357 459.664 563.226 456.535 567.308Z" fill="#B49254"></path>
<path d="M494.551 567.308C493.842 563.152 497.283 559.387 499.459 558.669H508.919C504.128 560.356 497.679 563.226 494.551 567.308Z" fill="#B49254"></path>
<path d="M532.566 567.308C531.857 563.152 535.299 559.387 537.475 558.669H546.935C542.144 560.356 535.695 563.226 532.566 567.308Z" fill="#B49254"></path>
<path fill-rule="evenodd" clip-rule="evenodd" d="M593.36 578.138H410.015C407.83 578.138 406.059 576.129 406.059 573.649C406.059 570.66 409.966 567.876 415.298 565.54C413.799 567.98 413.226 570.299 415.598 571.226C426.747 575.581 470.022 575.267 512.357 574.96C542.439 574.742 572.046 574.527 589.314 575.994C591.976 576.22 594.372 576.327 596.53 576.336C595.809 577.43 594.657 578.138 593.36 578.138Z" fill="#4A3D24" fill-opacity="0.1"></path>
<path d="M118.679 69.5699C111.209 110.102 108.985 123.795 110.601 143.503L112.35 144.627C110.183 123.88 116.565 86.6169 120.027 70.5786L118.679 69.5699Z" fill="#919B02"></path>
<path d="M122.249 54.325C122.201 54.3872 122.152 54.4516 122.105 54.5181C120.687 58.9837 117.836 136.744 119.326 148.086L117.325 149.034C113.988 127.438 114.672 64.8698 122.105 54.5181C122.155 54.361 122.203 54.2946 122.249 54.325Z" fill="#919B02"></path>
<path d="M133.725 58.0737C133.669 58.1289 133.613 58.1862 133.557 58.2457C131.552 62.4804 118.284 139.154 118.238 150.593L116.128 151.263C115.721 129.415 124.801 67.5054 133.557 58.2457C133.627 58.0967 133.684 58.0374 133.725 58.0737Z" fill="#919B02"></path>
<path d="M80.7272 58.175C80.6957 58.2472 80.6651 58.3214 80.6353 58.3977C80.3652 63.0753 96.8296 139.127 101.078 149.747L99.3729 151.161C90.8003 131.06 75.9926 70.2657 80.6353 58.3977C80.6448 58.2331 80.675 58.1569 80.7272 58.175Z" fill="#919B02"></path>
<path d="M98.0985 51.7087C98.0555 51.7759 98.0129 51.8454 97.9708 51.917C96.93 56.6064 100.634 136.774 103.079 148.336L101.159 149.448C96.0053 127.465 91.4161 63.0701 97.9708 51.917C98.0074 51.752 98.0499 51.6805 98.0985 51.7087Z" fill="#919B02"></path>
<path d="M113.348 138.615C115.701 143.724 106.873 147.969 102.165 149.452C96.992 148.781 89.4802 151.823 85.305 151.28C80.0861 150.603 80.7293 138.15 84.919 134.923C89.1088 131.696 86.4315 127.578 82.5841 123.866C78.7368 120.154 79.8732 114.412 86.7332 110.368C91.6525 107.468 90.5193 102.552 94.0099 98.2565C97.5004 93.9614 102.35 95.7922 103.5 100.269C105.051 106.307 105.111 108.065 108.053 110.685C113.561 115.59 110.198 122.006 107.521 128.641C104.844 135.276 110.407 132.228 113.348 138.615Z" fill="#A7B200"></path>
<path d="M47.1343 129.236C45.6855 137.19 59.3362 152.593 66.4208 152.975C73.3822 150.191 84.927 151.74 90.5453 149.492C97.5682 146.683 92.3768 116.926 85.3907 113.932C78.4046 110.938 80.6592 104.248 84.688 97.7051C88.7169 91.1625 85.0817 83.5744 74.0862 80.398C66.2015 78.1201 66.021 70.8702 59.6263 66.1391C53.2315 61.408 47.1343 65.6906 47.1343 72.3343C47.1342 81.2935 47.679 83.763 44.5206 88.4613C38.6067 97.2587 45.5812 104.988 51.6804 113.267C57.7795 121.547 48.9452 119.292 47.1343 129.236Z" fill="#C6D303"></path>
<path d="M128.786 145.409C129.794 150.943 120.188 152.858 115.258 153.124C110.415 151.186 102.382 152.264 98.4734 150.701C93.5871 148.746 97.3079 136.844 102.169 134.761C107.029 132.678 105.461 128.023 102.657 123.471C99.8544 118.919 102.384 113.639 110.034 111.429C115.52 109.845 115.645 104.8 120.095 101.509C124.544 98.2169 128.786 101.197 128.786 105.819C128.786 112.052 128.407 113.771 130.605 117.04C134.719 123.16 129.867 128.538 125.623 134.299C121.379 140.059 127.526 138.491 128.786 145.409Z" fill="#D7E238"></path>
<path d="M58.7828 91.8628C56.2697 126.457 55.6884 138.105 59.1437 154.225L60.817 154.924C56.7646 138.015 58.6415 106.276 60.0864 92.5193L58.7828 91.8628Z" fill="#919B02"></path>
<path d="M52.6286 92.7329C54.674 125.093 55.6611 135.884 61.8258 149.141L63.8093 149.115C56.8608 135.379 54.501 105.858 54.1896 92.8145L52.6286 92.7329Z" fill="#919B02"></path>
<path d="M72.9042 153.312C65.9558 139.576 63.596 110.054 63.2846 97.0109C60.3707 130.218 67.4384 145.849 70.9208 153.337L72.9042 153.312Z" fill="#919B02"></path>
<path d="M78.0228 153.057C73.4288 138.365 75.9576 108.858 77.7963 95.9408C69.4591 128.216 73.8592 144.796 76.0622 152.756L78.0228 153.057Z" fill="#919B02"></path>
<path d="M85.7572 150.616C81.1632 135.923 83.692 106.416 85.5307 93.4994C77.1935 125.775 81.5935 142.355 83.7965 150.315L85.7572 150.616Z" fill="#919B02"></path>
<path d="M86.9851 77.7354C85.0821 118.906 84.737 132.775 89.0116 152.081L90.8966 152.957C85.9353 132.696 87.2027 94.9116 88.4566 78.552L86.9851 77.7354Z" fill="#919B02"></path>
<path d="M79.502 149.098C79.9092 139.568 84.0468 117.089 97.3391 103.405C110.631 89.7222 102.878 77.6679 97.3391 73.3511" stroke="#919B02"></path>
<path d="M88.1935 116.252C90.4267 112.162 95.7857 104.444 99.3566 106.295C102.927 108.146 93.4024 113.704 88.1935 116.252Z" fill="#919B02"></path>
<path d="M96.1893 148.089C96.9728 143.495 99.5344 134.456 103.513 135.046C107.491 135.637 100.288 143.987 96.1893 148.089Z" fill="#919B02"></path>
<path d="M108.778 138.232C109.562 133.639 112.123 124.599 116.102 125.19C120.08 125.781 112.877 134.131 108.778 138.232Z" fill="#919B02"></path>
<path d="M79.5017 148.089C79.3349 140.356 77.3323 124.889 70.6562 124.889C63.9801 124.889 73.7715 140.356 79.5017 148.089Z" fill="#919B02"></path>
<path d="M83.8863 126.69C80.5541 119.71 75.3801 104.998 81.3415 101.993C87.303 98.9874 85.522 117.206 83.8863 126.69Z" fill="#919B02"></path>
<path d="M78.5595 150.978C87.2272 138.293 112.621 130.478 107.682 120.214C102.742 109.95 80.4745 131.708 78.5595 150.978Z" fill="#919B02"></path>
<circle cx="89.7878" cy="81.4514" r="7.65695" fill="#FEFEFE"></circle>
<circle cx="93.7702" cy="68.3679" r="7.65695" fill="#FEFEFE"></circle>
<circle cx="106.664" cy="64.5061" r="7.65695" fill="#FEFEFE"></circle>
<circle cx="115.386" cy="74.7458" r="7.65695" fill="#FEFEFE"></circle>
<circle cx="114.321" cy="85.0486" r="7.65695" fill="#FEFEFE"></circle>
<circle cx="104.542" cy="89.1086" r="7.65695" fill="#FEFEFE"></circle>
<circle cx="93.7702" cy="87.781" r="7.65695" fill="#FEFEFE"></circle>
<circle cx="103.069" cy="77.3914" r="9.12954" fill="#FFC940"></circle>
<path d="M50.1367 99.5533C59.9048 100.261 79.8655 109.194 81.5643 139.262" stroke="#919B02" stroke-width="0.5"></path>
<path d="M79.6982 109.389C89.4663 110.096 109.427 119.029 111.126 149.098" stroke="#919B02" stroke-width="0.5"></path>
<path d="M118.167 108.728C108.399 109.435 88.4382 118.368 86.7394 148.437" stroke="#919B02" stroke-width="0.5"></path>
<path d="M112.765 104.353C103.986 108.694 88.8708 124.498 98.643 152.985" stroke="#919B02" stroke-width="0.5"></path>
<circle cx="46.6005" cy="105.468" r="3.54845" transform="rotate(-40.5127 46.6005 105.468)" fill="#FEFEFE"></circle>
<circle cx="44.0644" cy="99.6598" r="3.54845" transform="rotate(-40.5127 44.0644 99.6598)" fill="#FEFEFE"></circle>
<circle cx="47.4453" cy="94.4175" r="3.54845" transform="rotate(-40.5127 47.4453 94.4175)" fill="#FEFEFE"></circle>
<circle cx="53.6005" cy="95.3992" r="3.54845" transform="rotate(-40.5127 53.6005 95.3992)" fill="#FEFEFE"></circle>
<circle cx="56.3271" cy="99.3501" r="3.54845" transform="rotate(-40.5127 56.3271 99.3501)" fill="#FEFEFE"></circle>
<circle cx="54.1035" cy="103.725" r="3.54845" transform="rotate(-40.5127 54.1035 103.725)" fill="#FEFEFE"></circle>
<circle cx="49.9091" cy="106.5" r="3.54845" transform="rotate(-40.5127 49.9091 106.5)" fill="#FEFEFE"></circle>
<circle cx="50.0576" cy="100.04" r="3.54845" transform="rotate(-40.5127 50.0576 100.04)" fill="#FFC940"></circle>
<rect x="59.3105" y="108.522" width="50.3091" height="16.5543" transform="rotate(90 59.3105 108.522)" fill="#7D55FF"></rect>
<rect x="137.338" y="108.522" width="50.3091" height="16.5543" transform="rotate(90 137.338 108.522)" fill="#7D55FF"></rect>
<rect x="37.4883" y="114.758" width="105.118" height="8.67795" fill="#C4B6FF"></rect>
<rect x="37.4883" y="130.412" width="105.118" height="8.67795" fill="#C4B6FF"></rect>
<rect x="37.4883" y="146.065" width="105.118" height="8.67795" fill="#C4B6FF"></rect>
<circle cx="104.782" cy="109.702" r="4.85273" fill="#FEFEFE"></circle>
<circle cx="107.306" cy="101.41" r="4.85273" fill="#FEFEFE"></circle>
<circle cx="115.478" cy="98.9626" r="4.85273" fill="#FEFEFE"></circle>
<circle cx="121.006" cy="105.452" r="4.85273" fill="#FEFEFE"></circle>
<circle cx="120.331" cy="111.982" r="4.85273" fill="#FEFEFE"></circle>
<circle cx="114.133" cy="114.555" r="4.85273" fill="#FEFEFE"></circle>
<circle cx="107.306" cy="113.714" r="4.85273" fill="#FEFEFE"></circle>
<circle cx="113.199" cy="107.129" r="4.85273" fill="#FFC940"></circle>
<path d="M770.844 564.206C770.844 567.937 733.376 570.961 687.157 570.961C640.938 570.961 603.471 567.937 603.471 564.206C603.471 562.698 609.592 562.769 619.939 561.644C635.189 559.987 659.62 558.914 687.157 558.914C712.299 558.914 734.851 559.809 750.191 561.225C763.052 562.413 770.844 562.504 770.844 564.206Z" fill="#897754"></path>
<path d="M603.471 564.206C603.471 562.698 609.592 562.769 619.939 561.644L603.471 561.697V564.206Z" fill="#897754"></path>
<path d="M750.191 561.225C763.052 562.413 770.844 562.504 770.844 564.206V561.19H761.089L750.191 561.225Z" fill="#897754"></path>
<path d="M763.903 565.083C763.903 568.814 726.436 571.839 680.217 571.839C633.998 571.839 596.53 568.814 596.53 565.083C596.53 561.352 633.998 558.328 680.217 558.328C726.436 558.328 763.903 561.352 763.903 565.083Z" fill="#4A3D24" fill-opacity="0.3"></path>
<path d="M770.844 561.558C770.844 565.289 733.376 568.314 687.157 568.314C640.938 568.314 603.471 565.289 603.471 561.558C603.471 557.827 640.938 554.802 687.157 554.802C733.376 554.802 770.844 557.827 770.844 561.558Z" fill="#B9A57F"></path>
<ellipse cx="688.638" cy="563.719" rx="41.1206" ry="1.21902" fill="#02356F" fill-opacity="0.3"></ellipse>
<ellipse cx="639.954" cy="563.834" rx="6.02222" ry="0.752133" transform="rotate(1.35123 639.954 563.834)" fill="#02356F" fill-opacity="0.3"></ellipse>
<ellipse cx="623.531" cy="570.991" rx="4.09332" ry="0.752133" transform="rotate(1.35123 623.531 570.991)" fill="#02356F" fill-opacity="0.3"></ellipse>
<circle cx="641.456" cy="559.255" r="4.90921" transform="rotate(-6.70452 641.456 559.255)" fill="#7D55FF"></circle>
<circle cx="624.918" cy="568.08" r="3.38741" transform="rotate(-6.70452 624.918 568.08)" fill="#7D55FF"></circle>
<path d="M695.302 520.33C698.129 516.425 707.138 516.347 711.289 516.795L719.198 526.893L721.89 542.375V554.155L700.687 560.381L657.774 558.53C657.887 557.24 658.515 554.323 660.13 552.977C661.746 551.63 665.067 551.294 666.525 551.294L671.574 540.187C678.305 535.195 692.474 524.234 695.302 520.33Z" fill="#B5CDFB"></path>
<path d="M736.115 531.959C725.829 531.022 716.548 538.528 711.789 544.495C720.135 537.199 731.145 536.814 735.607 537.534L736.115 531.959Z" fill="#C1CB5C"></path>
<circle cx="665.933" cy="558.214" r="4.94774" transform="rotate(0.539158 665.933 558.214)" fill="#7D55FF"></circle>
<circle cx="674.76" cy="556.647" r="6.6244" transform="rotate(0.539158 674.76 556.647)" fill="#7D55FF"></circle>
<circle cx="686.826" cy="556.102" r="7.27744" transform="rotate(0.539158 686.826 556.102)" fill="#7D55FF"></circle>
<circle cx="697.745" cy="556.802" r="6.74675" transform="rotate(0.539158 697.745 556.802)" fill="#7D55FF"></circle>
<circle cx="710.755" cy="556.637" r="6.74675" transform="rotate(0.539158 710.755 556.637)" fill="#7D55FF"></circle>
<path d="M674.614 549.26C674.931 551.953 673.005 554.393 670.312 554.709C667.619 555.026 665.18 553.1 664.863 550.407C664.547 547.714 666.473 545.275 669.166 544.958C671.858 544.641 674.298 546.568 674.614 549.26Z" fill="#7D55FF"></path>
<circle cx="658.453" cy="559.616" r="3.68786" transform="rotate(-6.70452 658.453 559.616)" fill="#7D55FF"></circle>
<circle cx="671.416" cy="543.032" r="4.63426" transform="rotate(-6.70452 671.416 543.032)" fill="#7D55FF"></circle>
<circle cx="682.77" cy="544.785" r="7.98219" transform="rotate(-6.70452 682.77 544.785)" fill="#7D55FF"></circle>
<circle cx="694.529" cy="544.366" r="6.74675" transform="rotate(-6.70452 694.529 544.366)" fill="#7D55FF"></circle>
<circle cx="707.749" cy="544.992" r="6.74675" transform="rotate(-6.70452 707.749 544.992)" fill="#7D55FF"></circle>
<circle cx="680.539" cy="536.971" r="4.77335" transform="rotate(-29.2799 680.539 536.971)" fill="#7D55FF"></circle>
<circle cx="688.693" cy="532.301" r="6.74675" transform="rotate(-29.2799 688.693 532.301)" fill="#7D55FF"></circle>
<circle cx="701.991" cy="533.488" r="6.74675" transform="rotate(-29.2799 701.991 533.488)" fill="#7D55FF"></circle>
<circle cx="694.171" cy="524.238" r="5.92258" transform="rotate(-29.2799 694.171 524.238)" fill="#7D55FF"></circle>
<circle cx="710.645" cy="523.135" r="9.47533" transform="rotate(-29.2799 710.645 523.135)" fill="#7D55FF"></circle>
<circle cx="723.543" cy="553.999" r="9.47533" transform="rotate(-29.2799 723.543 553.999)" fill="#7D55FF"></circle>
<circle cx="718.754" cy="537.97" r="8.07686" transform="rotate(-29.4608 718.754 537.97)" fill="#7D55FF"></circle>
</svg>